<svg width="24" height="24" viewBox="0 0 24 24" fill="none" xmlns="http://www.w3.org/2000/svg">
<g clip-path="url(#clip0_2_2046)">
<path d="M0.0468751 18.5841C0.406963 18.3469 0.809305 18.4468 1.19666 18.4153C1.43409 17.6234 2.10358 17.1504 2.57211 16.5037C2.39157 16.248 2.28887 15.9322 2.44988 15.6409C2.57694 15.4111 2.7917 15.2117 3.00696 15.0519C3.69567 14.5409 4.46177 14.1877 5.30501 14.006C5.38063 13.9897 5.47027 13.9039 5.49946 13.8292C5.65433 13.4332 5.99991 13.3027 6.35489 13.17C7.16056 12.8687 7.99595 12.7607 8.84832 12.8031C9.19799 12.8205 9.54425 12.9066 9.89203 12.9616C9.94428 12.9699 9.9964 12.979 10.0832 12.9935C10.0626 12.6133 10.0487 12.2521 10.0217 11.8919C10.0033 11.647 9.96049 11.4041 9.93947 11.1594C9.90315 10.7365 9.86569 10.3133 9.846 9.88947C9.81382 9.19677 10.312 8.6667 11.0075 8.66854C13.9671 8.67633 16.9267 8.67829 19.8863 8.66633C20.4676 8.66398 21.0424 9.2001 21.0017 9.79654C20.9904 9.96193 21 10.1287 21 10.2872C21.2378 10.2511 21.498 10.1873 21.7605 10.1761C22.7637 10.1335 23.6141 10.7524 23.9531 11.6849C23.9678 11.7253 23.9983 11.76 24.0341 11.7815C24.0469 12.4385 24.0469 13.1113 24.0341 13.7902C23.999 13.826 23.9664 13.8524 23.9561 13.8857C23.8397 14.2624 23.6347 14.5826 23.338 14.8403C22.7914 15.3152 22.1633 15.5287 21.4426 15.3771C21.1556 15.3168 20.878 15.2113 20.5949 15.126C20.5589 15.6232 20.5237 16.1377 20.4836 16.6518C20.4614 16.9357 20.4537 17.2234 20.3981 17.5012C20.3356 17.8133 20.2266 18.116 20.1381 18.4218C21.0791 18.4218 22.0474 18.4203 23.0157 18.4227C23.365 18.4235 23.7232 18.3686 24.0469 18.5625C24.0469 18.7356 24.0469 18.9087 24.0341 19.0875C23.8733 19.442 23.7221 19.7895 23.5782 20.14C23.3792 20.6242 22.8302 21.0498 22.2855 21.0495C15.4631 21.0455 8.64063 21.0446 1.81819 21.0518C1.3516 21.0523 0.725884 20.6654 0.55322 20.1852C0.42945 19.841 0.278126 19.5066 0.13457 19.1697C0.124695 19.1466 0.0769881 19.1395 0.046875 19.125C0.0468751 18.9519 0.0468751 18.7788 0.0468751 18.5841ZM12.3516 19.1718C8.56639 19.1718 4.78122 19.1718 0.94769 19.1718C1.07654 19.4666 1.16248 19.739 1.30859 19.9739C1.43011 20.1693 1.62446 20.2995 1.88858 20.2994C8.66062 20.2962 15.4327 20.298 22.2047 20.2891C22.3568 20.2889 22.5655 20.2161 22.6494 20.1037C22.8495 19.8354 22.9906 19.5232 23.1874 19.1718C23.0153 19.1718 22.9325 19.1718 22.8497 19.1718C21.4203 19.1718 19.9909 19.1719 18.5615 19.1718C18.5068 19.1718 18.442 19.1907 18.3995 19.1679C18.2924 19.1104 18.1709 19.0529 18.1004 18.9608C18 18.8296 18.0285 18.6654 18.1635 18.5731C18.276 18.4962 18.4212 18.4369 18.5557 18.4282C18.9419 18.4032 19.2313 18.2485 19.4653 17.9326C19.7424 17.5585 19.6737 17.1235 19.727 16.7138C19.8025 16.1332 19.8292 15.5461 19.8739 14.9615C19.9381 14.1225 20.0023 13.2834 20.0615 12.4441C20.098 11.9272 20.1205 11.4094 20.1585 10.8927C20.1783 10.6246 20.2158 10.3577 20.2498 10.0909C20.3154 9.57522 20.1843 9.42185 19.6718 9.42185C16.7974 9.42185 13.923 9.42176 11.0486 9.42198C10.758 9.422 10.563 9.65617 10.5932 9.9299C10.6499 10.4426 10.6932 10.9569 10.733 11.4712C10.7711 11.9644 10.7887 12.4594 10.8336 12.952C10.8513 13.1463 10.8753 13.3387 11.1284 13.4302C11.2548 13.4759 11.3761 13.6584 11.4115 13.8009C11.4509 13.9596 11.5382 13.9879 11.6559 14.0147C12.5886 14.2275 13.4272 14.6351 14.1755 15.2299C14.6049 15.5712 14.6695 15.9269 14.4042 16.4252C14.3812 16.4683 14.3926 16.5586 14.4243 16.5969C14.5723 16.7756 14.7359 16.9412 14.8886 17.1162C15.1966 17.469 15.5335 17.8059 15.687 18.2616C15.7329 18.3977 15.7951 18.4251 15.9171 18.4233C16.2373 18.4189 16.5577 18.4166 16.8778 18.4235C17.1655 18.4297 17.3006 18.5673 17.2968 18.8298C17.2937 19.0506 17.1444 19.1717 16.8741 19.1718C15.3822 19.1719 13.8903 19.1718 12.3516 19.1718ZM10.3126 17.3736C10.4488 16.2701 10.585 15.1666 10.7216 14.0593C10.106 13.7426 9.45784 13.5987 8.79304 13.5523C7.95239 13.4935 7.14081 13.6589 6.36268 13.9781C6.30477 14.0018 6.24133 14.0976 6.24089 14.1603C6.23941 14.3678 6.26573 14.5756 6.28121 14.7832C6.29582 14.9794 6.17842 15.0973 6.01308 15.1334C5.8203 15.1755 5.64234 15.1266 5.5784 14.8968C5.56259 14.84 5.53427 14.7867 5.51271 14.7342C4.61472 14.9437 3.82535 15.3337 3.12927 15.9156C3.15677 15.9668 3.16914 15.9948 3.18577 16.02C3.69099 16.7854 4.1957 17.5512 4.70452 18.3143C4.73566 18.361 4.7992 18.4148 4.84878 18.4159C5.22482 18.4244 5.60113 18.4206 5.97709 18.4206C5.95141 18.1857 5.93057 17.9789 5.9059 17.7725C5.85125 17.3154 5.79985 16.8578 5.73651 16.4018C5.70906 16.2042 5.84247 15.9872 6.04536 15.9403C6.22939 15.8978 6.43486 16.0291 6.46618 16.2392C6.53846 16.7242 6.59383 17.2118 6.6563 17.6982C6.68707 17.9379 6.71837 18.1775 6.74853 18.4101C7.92323 18.4101 9.06066 18.4101 10.2017 18.4101C10.2394 18.0715 10.276 17.7439 10.3126 17.3736ZM23.3015 13.2069C23.3 12.9007 23.3135 12.5936 23.2942 12.2885C23.2293 11.2638 22.0987 10.5609 21.0789 11.1151C20.9829 11.1673 20.9027 11.231 20.8983 11.3763C20.89 11.6438 20.8367 11.9096 20.8139 12.1771C20.7629 12.7765 20.7158 13.3764 20.6763 13.9766C20.6713 14.0517 20.701 14.1482 20.7497 14.2045C21.1317 14.646 21.7943 14.7934 22.375 14.5702C22.928 14.3575 23.3534 13.6905 23.3015 13.2069ZM10.9929 18.093C10.9838 18.1967 10.9747 18.3003 10.964 18.4217C11.3544 18.4217 11.7119 18.4269 12.0689 18.4165C12.1281 18.4148 12.2043 18.3576 12.2403 18.3043C12.7188 17.5956 13.183 16.8771 13.6716 16.1756C13.8001 15.991 13.7882 15.877 13.622 15.7556C12.9523 15.2668 12.2244 14.9048 11.4066 14.7285C11.3843 14.8864 11.3607 15.03 11.3444 15.1744C11.2946 15.6169 11.25 16.0599 11.1989 16.5022C11.139 17.02 11.0742 17.5373 10.9929 18.093ZM13.8246 17.3143C13.5815 17.6749 13.3383 18.0356 13.0854 18.4107C13.7137 18.4107 14.302 18.4107 14.9059 18.4107C14.8862 18.3549 14.8817 18.3054 14.8555 18.274C14.5704 17.932 14.284 17.591 13.9899 17.2569C13.9708 17.2351 13.8858 17.2713 13.8246 17.3143ZM3.56252 17.9766C3.38439 17.7103 3.20625 17.4441 3.02222 17.1691C2.67936 17.573 2.34037 17.9724 1.97058 18.408C2.63884 18.408 3.22524 18.408 3.83844 18.408C3.74536 18.258 3.66584 18.1297 3.56252 17.9766Z" fill="#A6A6A6"/>
<path d="M14.7185 7.22862C14.8866 6.97439 15.0358 6.72316 15.2263 6.50861C15.4943 6.20678 15.4939 6.05544 15.1919 5.78922C14.7702 5.41756 14.5055 4.91133 14.7728 4.33763C14.8672 4.13491 15.0267 3.95662 15.1807 3.78943C15.2997 3.66023 15.4258 3.56176 15.4296 3.3564C15.4334 3.14678 15.6201 3.03195 15.8598 3.04696C16.0547 3.05917 16.1683 3.18316 16.1714 3.39464C16.1774 3.80737 15.9977 4.11784 15.6765 4.37586C15.3363 4.64914 15.327 4.93448 15.6851 5.18921C16.2958 5.62376 16.3143 6.60101 15.8356 6.97847C15.6172 7.15071 15.4021 7.33872 15.3956 7.67746C15.3922 7.85409 15.1923 7.92223 15.0253 7.91592C14.8423 7.909 14.6994 7.80917 14.6841 7.61004C14.6749 7.49093 14.7053 7.36877 14.7185 7.22862Z" fill="#A6A6A6"/>
<path d="M16.8635 7.46831C16.6644 7.31831 16.6663 7.14176 16.7498 6.95178C17.0505 6.26784 16.9816 5.62712 16.5366 5.02439C16.4269 4.87581 16.4438 4.71255 16.5213 4.54942C16.6574 4.26294 16.7975 3.97778 16.9185 3.68484C17.0109 3.46106 17.1763 3.36242 17.407 3.42968C17.596 3.48476 17.6888 3.65531 17.6277 3.87921C17.5445 4.18456 17.4448 4.48544 17.3393 4.83032C17.7731 5.60295 17.7989 6.45692 17.4289 7.32768C17.3436 7.52838 17.1152 7.58366 16.8635 7.46831Z" fill="#A6A6A6"/>
<path d="M13.2762 5.55425C13.1566 5.05141 13.127 4.56706 13.2644 4.08067C13.3248 3.86686 13.5396 3.74174 13.7687 3.79863C13.9274 3.83803 14.0518 4.06755 14.0015 4.24755C13.8309 4.85749 13.933 5.41071 14.3233 5.91348C14.4542 6.08221 14.4007 6.33619 14.2248 6.46892C14.0954 6.56658 13.8339 6.54506 13.732 6.38721C13.5642 6.12744 13.4313 5.84508 13.2762 5.55425Z" fill="#A6A6A6"/>
</g>
<defs>
<clipPath id="clip0_2_2046">
<rect width="24" height="24" fill="white"/>
</clipPath>
</defs>
</svg>
