<svg width="24" height="24" viewBox="0 0 24 24" fill="none" xmlns="http://www.w3.org/2000/svg">
<path d="M5.64844 0.792187C5.21719 0.904686 4.8375 1.21406 4.64063 1.61719C4.54688 1.81406 4.52344 1.93594 4.50938 2.42344L4.49063 2.99062L3.33281 3.00937L2.175 3.02344L1.81875 3.19687C1.39219 3.40781 1.12969 3.67969 0.923438 4.11562L0.773438 4.42969V12.3797V20.325L0.946875 20.6812C1.15781 21.1078 1.42969 21.3703 1.86563 21.5766L2.17969 21.7266L7.725 21.7406L13.2703 21.75L13.3828 21.6375C13.5375 21.4828 13.5375 21.2672 13.3828 21.1172L13.2703 21H7.87031C3.76875 21 2.42344 20.9859 2.27813 20.9437C2.02031 20.8687 1.63125 20.4797 1.55625 20.2219C1.51406 20.0719 1.5 18.6281 1.5 14.1375V8.25H12H22.5V11.5078V14.7703L22.6172 14.8828C22.7672 15.0375 22.9828 15.0375 23.1375 14.8828L23.25 14.7656L23.2406 9.6L23.2266 4.42969L23.0766 4.11562C22.8703 3.67969 22.6078 3.40781 22.1813 3.19687L21.825 3.02344L20.6672 3.00937L19.5094 2.99062L19.4906 2.42344C19.4719 1.87969 19.4625 1.8375 19.3125 1.55625C19.1438 1.23281 18.9422 1.04531 18.6094 0.881248C18.3 0.731249 17.6906 0.735937 17.3672 0.890625C17.0672 1.03594 16.7859 1.31719 16.6406 1.61719C16.5469 1.81875 16.5234 1.93594 16.5094 2.42344L16.4906 3H15H13.5094L13.4906 2.42344C13.4719 1.87969 13.4625 1.8375 13.3125 1.55625C13.1438 1.23281 12.9422 1.04531 12.6094 0.881248C12.3 0.731249 11.6906 0.735937 11.3672 0.890625C11.0672 1.03594 10.7859 1.31719 10.6406 1.61719C10.5469 1.81875 10.5234 1.93594 10.5094 2.42344L10.4906 3H9H7.50938L7.49063 2.42344C7.47188 1.87969 7.4625 1.8375 7.3125 1.55625C7.05469 1.06875 6.64688 0.80625 6.09844 0.773438C5.92969 0.764061 5.72813 0.768749 5.64844 0.792187ZM6.4125 1.62656C6.47813 1.67344 6.57656 1.77656 6.62813 1.84687C6.72188 1.96875 6.72656 2.03437 6.72656 3.375C6.72656 4.71562 6.72188 4.78125 6.62813 4.90312C6.44531 5.15156 6.29531 5.22656 6 5.22656C5.70469 5.22656 5.55469 5.15156 5.37188 4.90312C5.27813 4.78125 5.27344 4.70156 5.25938 3.50156C5.25 2.79844 5.25938 2.16094 5.27344 2.07656C5.30625 1.88906 5.50313 1.65 5.69531 1.56562C5.88281 1.47656 6.25781 1.50937 6.4125 1.62656ZM12.4125 1.62656C12.4781 1.67344 12.5766 1.77656 12.6281 1.84687C12.7219 1.96875 12.7266 2.03437 12.7266 3.375C12.7266 4.71562 12.7219 4.78125 12.6281 4.90312C12.4453 5.15156 12.2953 5.22656 12 5.22656C11.7047 5.22656 11.5547 5.15156 11.3719 4.90312C11.2781 4.78125 11.2734 4.70156 11.2594 3.50156C11.25 2.79844 11.2594 2.16094 11.2734 2.07656C11.3063 1.88906 11.5031 1.65 11.6953 1.56562C11.8828 1.47656 12.2578 1.50937 12.4125 1.62656ZM18.4125 1.62656C18.4781 1.67344 18.5766 1.77656 18.6281 1.84687C18.7219 1.96875 18.7266 2.03437 18.7266 3.375C18.7266 4.71562 18.7219 4.78125 18.6281 4.90312C18.4453 5.15156 18.2953 5.22656 18 5.22656C17.7047 5.22656 17.5547 5.15156 17.3719 4.90312C17.2781 4.78125 17.2734 4.70156 17.2594 3.50156C17.25 2.79844 17.2594 2.16094 17.2734 2.07656C17.3063 1.88906 17.5031 1.65 17.6953 1.56562C17.8828 1.47656 18.2578 1.50937 18.4125 1.62656ZM4.50938 4.32187C4.52813 4.79062 4.55156 4.94062 4.63125 5.10938C4.79063 5.44219 4.98281 5.63906 5.30625 5.81719C5.57812 5.9625 5.63438 5.97656 6 5.97656C6.36563 5.97656 6.42188 5.9625 6.69375 5.81719C7.02188 5.63906 7.16719 5.48906 7.34531 5.1375C7.45313 4.92656 7.47188 4.82812 7.49063 4.32187L7.50938 3.75H9H10.4906L10.5094 4.32187C10.5281 4.79062 10.5516 4.94062 10.6313 5.10938C10.7906 5.44219 10.9828 5.63906 11.3063 5.81719C11.5781 5.9625 11.6344 5.97656 12 5.97187C12.3375 5.97187 12.4359 5.95312 12.6375 5.85C12.9938 5.6625 13.1391 5.52187 13.3125 5.19375C13.4625 4.9125 13.4719 4.87031 13.4906 4.32187L13.5094 3.75H15H16.4906L16.5094 4.32187C16.5281 4.79062 16.5516 4.94062 16.6313 5.10938C16.7906 5.44219 16.9828 5.63906 17.3063 5.81719C17.5781 5.9625 17.6344 5.97656 18 5.97656C18.3656 5.97656 18.4219 5.9625 18.6938 5.81719C19.0219 5.63906 19.1672 5.48906 19.3453 5.1375C19.4531 4.92656 19.4719 4.82812 19.4906 4.32187L19.5094 3.75H20.5219C21.1734 3.75 21.5953 3.76875 21.7219 3.80625C21.9797 3.88125 22.3688 4.27031 22.4438 4.52812C22.4813 4.65937 22.5 5.15625 22.5 6.1125V7.5H12H1.5V6.1125C1.5 5.15625 1.51875 4.65937 1.55625 4.52812C1.62656 4.28906 2.02031 3.88594 2.25 3.81094C2.34844 3.78281 2.84063 3.75937 3.45 3.75469L4.49063 3.75L4.50938 4.32187Z" fill="#454545"/>
<path d="M4.19526 10.1906C4.00308 10.275 3.8062 10.5141 3.77339 10.7016C3.75464 10.7859 3.74995 11.175 3.75933 11.5641C3.77339 12.3375 3.79683 12.4078 4.09683 12.6281C4.2187 12.7219 4.28901 12.7266 5.24995 12.7266C6.21089 12.7266 6.2812 12.7219 6.40308 12.6281C6.71714 12.3984 6.72651 12.3562 6.72651 11.4375C6.72651 10.6641 6.71714 10.5891 6.62808 10.4719C6.3937 10.1578 6.37026 10.1484 5.3062 10.1391C4.57026 10.1297 4.30308 10.1391 4.19526 10.1906ZM5.99995 11.4375V12H5.24995H4.49995V11.4375V10.875H5.24995H5.99995V11.4375Z" fill="#454545"/>
<path d="M8.69526 10.1906C8.50308 10.275 8.3062 10.5141 8.27339 10.7016C8.25464 10.7859 8.24995 11.175 8.25933 11.5641C8.27339 12.3375 8.29683 12.4078 8.59683 12.6281C8.7187 12.7219 8.78901 12.7266 9.74995 12.7266C10.7109 12.7266 10.7812 12.7219 10.9031 12.6281C11.2171 12.3984 11.2265 12.3562 11.2265 11.4375C11.2265 10.6641 11.2171 10.5891 11.1281 10.4719C10.8937 10.1578 10.8703 10.1484 9.8062 10.1391C9.07026 10.1297 8.80308 10.1391 8.69526 10.1906ZM10.5 11.4375V12H9.74995H8.99995V11.4375V10.875H9.74995H10.5V11.4375Z" fill="#454545"/>
<path d="M13.1953 10.1906C13.0031 10.275 12.8062 10.5141 12.7734 10.7016C12.7546 10.7859 12.75 11.175 12.7593 11.5641C12.7734 12.3375 12.7968 12.4078 13.0968 12.6281C13.2187 12.7219 13.289 12.7266 14.25 12.7266C15.2109 12.7266 15.2812 12.7219 15.4031 12.6281C15.7171 12.3984 15.7265 12.3562 15.7265 11.4375C15.7265 10.6641 15.7171 10.5891 15.6281 10.4719C15.3937 10.1578 15.3703 10.1484 14.3062 10.1391C13.5703 10.1297 13.3031 10.1391 13.1953 10.1906ZM15 11.4375V12H14.25H13.5V11.4375V10.875H14.25H15V11.4375Z" fill="#454545"/>
<path d="M17.6953 10.1906C17.5031 10.275 17.3062 10.5141 17.2734 10.7016C17.2546 10.7859 17.25 11.175 17.2593 11.5641C17.2734 12.3375 17.2968 12.4078 17.5968 12.6281C17.7187 12.7219 17.789 12.7266 18.75 12.7266C19.7109 12.7266 19.7812 12.7219 19.9031 12.6281C20.2171 12.3984 20.2265 12.3562 20.2265 11.4375C20.2265 10.6641 20.2171 10.5891 20.1281 10.4719C19.8937 10.1578 19.8703 10.1484 18.8062 10.1391C18.0703 10.1297 17.8031 10.1391 17.6953 10.1906ZM19.5 11.4375V12H18.75H18V11.4375V10.875H18.75H19.5V11.4375Z" fill="#454545"/>
<path d="M4.19526 13.5656C4.00308 13.65 3.8062 13.8891 3.77339 14.0766C3.75464 14.1609 3.74995 14.55 3.75933 14.9391C3.77339 15.7125 3.79683 15.7828 4.09683 16.0031C4.2187 16.0969 4.28901 16.1016 5.24995 16.1016C6.21089 16.1016 6.2812 16.0969 6.40308 16.0031C6.71714 15.7734 6.72651 15.7312 6.72651 14.8125C6.72651 14.0391 6.71714 13.9641 6.62808 13.8469C6.3937 13.5328 6.37026 13.5234 5.3062 13.5141C4.57026 13.5047 4.30308 13.5141 4.19526 13.5656ZM5.99995 14.8125V15.375H5.24995H4.49995V14.8125V14.25H5.24995H5.99995V14.8125Z" fill="#454545"/>
<path d="M8.69526 13.5656C8.50308 13.65 8.3062 13.8891 8.27339 14.0766C8.25464 14.1609 8.24995 14.55 8.25933 14.9391C8.27339 15.7125 8.29683 15.7828 8.59683 16.0031C8.7187 16.0969 8.78901 16.1016 9.74995 16.1016C10.7109 16.1016 10.7812 16.0969 10.9031 16.0031C11.2171 15.7734 11.2265 15.7312 11.2265 14.8125C11.2265 14.0391 11.2171 13.9641 11.1281 13.8469C10.8937 13.5328 10.8703 13.5234 9.8062 13.5141C9.07026 13.5047 8.80308 13.5141 8.69526 13.5656ZM10.5 14.8125V15.375H9.74995H8.99995V14.8125V14.25H9.74995H10.5V14.8125Z" fill="#454545"/>
<path d="M13.1953 13.5656C13.0031 13.65 12.8062 13.889 12.7734 14.0765C12.7546 14.1609 12.75 14.55 12.7593 14.939C12.7734 15.5719 12.7828 15.6656 12.8718 15.7781C13.0218 15.9844 13.1906 16.0875 13.4203 16.1109C13.6031 16.1344 13.65 16.1203 13.7531 16.0172C13.9125 15.8578 13.9125 15.6469 13.7578 15.4922C13.6968 15.4265 13.6125 15.375 13.5703 15.375C13.5093 15.375 13.5 15.2906 13.5 14.8125V14.25H14.3203C15.1312 14.25 15.1453 14.25 15.2578 14.1328C15.3328 14.0625 15.375 13.964 15.375 13.875C15.375 13.7859 15.3328 13.6875 15.2578 13.6172C15.1453 13.5 15.1406 13.5 14.2406 13.5C13.5937 13.5047 13.2937 13.5234 13.1953 13.5656Z" fill="#454545"/>
<path d="M17.5687 13.5703C15.8343 13.8609 14.3437 15.1172 13.7765 16.7719C13.425 17.7844 13.4203 18.9281 13.7578 19.9172C14.3109 21.5531 15.689 22.7766 17.3671 23.1375C18.6796 23.4187 20.114 23.1187 21.2109 22.3359C21.5437 22.1016 22.1062 21.5344 22.3359 21.2156C22.7484 20.6344 23.0906 19.7719 23.1984 19.0453C23.3765 17.8406 23.0296 16.4625 22.2984 15.4875C22.0453 15.1547 21.4406 14.5687 21.1312 14.3531C20.1281 13.6641 18.7781 13.3687 17.5687 13.5703ZM19.3828 14.3812C20.9062 14.7984 21.9796 15.8812 22.3875 17.4187C22.514 17.9016 22.5093 18.8812 22.3734 19.3828C21.9656 20.8828 20.8828 21.9656 19.3828 22.3734C18.8812 22.5094 17.9015 22.5141 17.4187 22.3875C15.6093 21.9047 14.3812 20.4375 14.264 18.6141C14.189 17.4516 14.625 16.3172 15.4687 15.4687C16.0875 14.8547 16.7906 14.4797 17.6484 14.3156C18.089 14.2312 18.9515 14.2641 19.3828 14.3812Z" fill="#454545"/>
<path d="M20.6719 16.7203C20.6344 16.7344 19.9313 17.4141 19.1157 18.2297L17.625 19.7109L16.936 19.0219C16.1344 18.225 16.0407 18.1734 15.7922 18.4172C15.5391 18.675 15.5813 18.7453 16.5844 19.7484C17.386 20.5453 17.4797 20.625 17.625 20.625C17.775 20.625 17.911 20.4984 19.4204 18.9938C20.3204 18.0984 21.0844 17.3109 21.1219 17.2406C21.2157 17.0578 21.2063 16.9781 21.0516 16.8234C20.9204 16.6922 20.8219 16.6641 20.6719 16.7203Z" fill="#454545"/>
<path d="M4.19526 16.9406C4.00308 17.025 3.8062 17.2641 3.77339 17.4516C3.75464 17.5359 3.74995 17.925 3.75933 18.3141C3.77339 19.0875 3.79683 19.1578 4.09683 19.3781C4.2187 19.4719 4.28901 19.4766 5.24995 19.4766C6.21089 19.4766 6.2812 19.4719 6.40308 19.3781C6.71714 19.1484 6.72651 19.1062 6.72651 18.1875C6.72651 17.4141 6.71714 17.3391 6.62808 17.2219C6.3937 16.9078 6.37026 16.8984 5.3062 16.8891C4.57026 16.8797 4.30308 16.8891 4.19526 16.9406ZM5.99995 18.1875V18.75H5.24995H4.49995V18.1875V17.625H5.24995H5.99995V18.1875Z" fill="#454545"/>
<path d="M8.69526 16.9406C8.50308 17.025 8.3062 17.2641 8.27339 17.4516C8.25464 17.5359 8.24995 17.925 8.25933 18.3141C8.27339 19.0875 8.29683 19.1578 8.59683 19.3781C8.7187 19.4719 8.78901 19.4766 9.74995 19.4766C10.7109 19.4766 10.7812 19.4719 10.9031 19.3781C11.2171 19.1484 11.2265 19.1062 11.2265 18.1875C11.2265 17.4141 11.2171 17.3391 11.1281 17.2219C10.8937 16.9078 10.8703 16.8984 9.8062 16.8891C9.07026 16.8797 8.80308 16.8891 8.69526 16.9406ZM10.5 18.1875V18.75H9.74995H8.99995V18.1875V17.625H9.74995H10.5V18.1875Z" fill="#454545"/>
</svg>
