<svg width="24" height="23" viewBox="0 0 24 23" fill="none" xmlns="http://www.w3.org/2000/svg">
<path d="M9.375 0.046875C10.5166 0.046875 11.6582 0.046875 12.8128 0.0673231C12.8259 0.349569 12.8259 0.611366 12.8259 0.890624C12.7315 0.890624 12.6471 0.890624 12.5627 0.890624C11.7972 0.890628 11.0317 0.887104 10.2663 0.895972C10.1878 0.896882 10.0586 0.956696 10.0413 1.01531C9.97222 1.24873 9.93744 1.49237 9.89124 1.73247C9.72521 2.59533 9.56098 3.45855 9.39357 4.32115C9.26776 4.96937 9.13809 5.61685 9.00482 6.29163C10.295 6.29163 11.5639 6.29163 12.8494 6.29163C12.8494 7.32819 12.8494 8.34096 12.8494 9.35139C13.2688 9.4032 13.3222 9.39054 13.4998 9.06988C13.7624 8.59575 14.3289 8.44027 14.8329 8.7153C15.1607 8.89424 15.2719 9.20742 15.3797 9.5324C15.4067 9.61386 15.4958 9.67473 15.5564 9.74506C15.6205 9.68681 15.687 9.63105 15.7481 9.56982C15.9193 9.39825 16.0585 9.14337 16.264 9.06799C16.7238 8.89938 17.3343 8.93189 17.6187 9.54258C17.6885 9.69259 17.7959 9.74445 17.9644 9.75788C18.1573 9.77326 18.3619 9.81765 18.5312 9.90676C18.7107 10.0012 18.8548 10.163 19.0203 10.3004C19.4038 9.47987 19.7868 8.6621 20.1679 7.84341C20.2619 7.64148 20.3161 7.46078 20.2352 7.21022C20.0104 6.51394 20.2453 5.68796 20.8639 5.16216C21.8025 4.36435 23.4669 4.68673 23.9283 5.94412C23.944 5.98709 24.0063 6.01301 24.0469 6.04687C24.0469 6.43848 24.0469 6.83008 24.0343 7.22777C23.9985 7.27112 23.9702 7.30617 23.9529 7.34601C23.7986 7.7022 23.6246 8.05211 23.27 8.24529C23.0004 8.39216 22.83 8.59147 22.7375 8.88131C22.6682 9.09852 22.5647 9.3048 22.4764 9.51593C22.188 10.2053 21.9002 10.895 21.6105 11.5838C21.5586 11.7069 21.5912 11.7742 21.6986 11.8655C21.9338 12.0655 22.1616 12.2816 22.3558 12.5209C22.8823 13.1694 23.1867 13.9169 23.2695 14.7656C23.5343 14.7656 23.7906 14.7656 24.0469 14.7656C24.0469 16.001 24.0469 17.2363 24.0319 18.4785C23.9958 18.5241 23.9644 18.5606 23.955 18.6021C23.6621 19.8886 22.9663 20.9074 21.897 21.6691C21.1845 22.1766 20.381 22.5298 19.5124 22.5343C14.506 22.5601 9.49928 22.5475 4.49268 22.5452C4.18325 22.5451 3.95766 22.3715 3.74405 22.161C3.43413 21.8556 3.46482 21.4562 3.42757 21.0829C3.36087 20.4145 3.3267 19.7428 3.28222 19.0723C3.23311 18.3318 3.18864 17.591 3.14031 16.8504C3.11113 16.4033 3.07764 15.9566 3.04756 15.5096C2.99982 14.8002 2.95384 14.0907 2.9061 13.3814C2.87602 12.9344 2.83654 12.4879 2.81467 12.0405C2.77718 11.2737 2.74987 10.5063 2.71919 9.73912C2.71594 9.65807 2.71875 9.57677 2.71875 9.45402C2.25324 9.92369 1.82573 10.355 1.39311 10.7915C1.263 10.6391 1.14233 10.5093 1.03454 10.3696C0.594559 9.79911 0.280295 9.1689 0.136052 8.45834C0.130475 8.43086 0.0776721 8.41298 0.046875 8.39062C0.0468749 7.78027 0.0468749 7.16992 0.0630673 6.55084C0.0983289 6.51852 0.1302 6.49705 0.134572 6.47098C0.217796 5.97468 0.403341 5.51651 0.663001 5.08951C1.2506 4.12324 2.06221 3.42122 3.13721 3.04653C3.89625 2.78198 4.66993 2.72113 5.47026 2.85251C6.46006 3.01499 7.28692 3.46774 8.05642 4.1811C7.34989 4.88545 6.65188 5.58131 5.95011 6.2809C6.64562 6.2809 7.34705 6.2842 8.04829 6.27421C8.1005 6.27346 8.16366 6.18448 8.19895 6.12337C8.22751 6.07391 8.21951 6.00419 8.23157 5.94423C8.37769 5.21775 8.52715 4.49192 8.67048 3.76489C8.82712 2.97036 8.97979 2.17503 9.13119 1.37949C9.21561 0.935881 9.29393 0.491117 9.375 0.046875ZM20.1328 15.6094C16.5511 15.6094 12.9693 15.6094 9.38612 15.6094C9.38612 15.858 9.38612 16.0737 9.38612 16.3143C13.3835 16.3143 17.37 16.3143 21.3585 16.3143C21.3585 16.6077 21.3585 16.8759 21.3585 17.1686C17.3557 17.1686 13.3693 17.1686 9.35301 17.1686C9.37693 17.5038 9.38454 17.8141 9.42359 18.1203C9.55294 19.1348 10.0273 19.9647 10.7803 20.6508C11.5904 21.3888 12.5434 21.7443 13.6294 21.7483C15.3557 21.7547 17.0821 21.7589 18.8082 21.7436C19.2281 21.7398 19.6574 21.6986 20.0646 21.6007C20.9894 21.3783 21.739 20.8676 22.3343 20.1193C22.7886 19.5482 23.0649 18.9019 23.1925 18.1943C23.2531 17.8582 23.2435 17.5094 23.2669 17.1466C22.8401 17.1466 22.4681 17.1466 22.0947 17.1466C22.0947 16.8606 22.0947 16.5926 22.0947 16.3075C22.4831 16.3075 22.8553 16.3075 23.2358 16.3075C23.2358 16.0687 23.2358 15.8476 23.2358 15.6094C22.2077 15.6094 21.1937 15.6094 20.1328 15.6094ZM7.24219 21.75C8.41165 21.75 9.58111 21.75 10.7352 21.75C10.4082 21.4314 10.0799 21.1414 9.78625 20.8197C8.92928 19.8812 8.55649 18.7501 8.53402 17.4967C8.51932 16.6766 8.53125 15.8561 8.53125 15.0358C8.53125 14.9524 8.53125 14.8689 8.53125 14.7626C8.82595 14.7626 9.09579 14.7626 9.36716 14.7626C9.37114 14.6929 9.36633 14.6445 9.37756 14.6001C9.57707 13.8111 10.007 13.1958 10.7275 12.793C10.7954 12.755 10.857 12.6561 10.8685 12.5777C10.8907 12.4263 10.875 12.2695 10.875 12.1509C10.3717 12.0347 9.893 11.939 9.42295 11.8115C8.95301 11.6841 8.49169 11.5248 8.01659 11.3763C7.72147 12.8526 7.4195 14.3423 7.12673 15.8337C6.83305 17.3299 6.54855 18.8279 6.25914 20.3296C6.00909 20.283 5.7919 20.2495 5.5792 20.1976C5.53185 20.1861 5.46049 20.1025 5.46741 20.0643C5.59662 19.3498 5.73219 18.6365 5.87429 17.9245C6.02077 17.1904 6.18212 16.4594 6.3252 15.7247C6.4918 14.8693 6.64051 14.0103 6.80665 13.1548C6.93731 12.4819 7.08264 11.8119 7.22337 11.1313C7.15552 11.1056 7.10065 11.0773 7.04235 11.0639C6.55592 10.9525 6.06871 10.9406 5.57225 11.0109C4.93953 11.1005 4.33321 11.2741 3.74565 11.5171C3.68776 11.5411 3.61985 11.6393 3.62357 11.6988C3.67444 12.5148 3.73951 13.3299 3.79571 14.1455C3.81861 14.4779 3.82135 14.8117 3.84581 15.144C3.9036 15.929 3.97041 16.7133 4.03061 17.4981C4.06488 17.9449 4.09624 18.3919 4.12372 18.8392C4.17309 19.6423 4.22387 20.4455 4.26309 21.2492C4.27954 21.5863 4.42542 21.7495 4.75785 21.7498C5.57034 21.7505 6.38282 21.75 7.24219 21.75ZM16.6011 9.81437C16.5524 9.88302 16.491 9.94591 16.4571 10.0212C16.1405 10.7239 15.051 10.7428 14.7001 10.0772C14.6228 9.93055 14.5949 9.75851 14.5241 9.60767C14.4898 9.53464 14.4162 9.44882 14.3465 9.43399C14.2946 9.42296 14.1896 9.50279 14.1611 9.56598C13.9569 10.0187 13.6061 10.2001 13.1224 10.1746C12.9468 10.1654 12.8231 10.2339 12.8425 10.4475C12.8886 10.9543 12.6878 11.3278 12.2306 11.5615C12.1427 11.6064 12.0641 11.6691 11.9811 11.7235C11.6348 11.9504 11.607 12.0239 11.7039 12.4549C13.5618 12.3257 14.552 13.6332 14.743 14.7196C15.0534 12.6344 16.4738 11.2852 18.4145 10.9423C18.2282 10.7842 18.1271 10.5324 17.8377 10.5474C17.4148 10.5693 17.1262 10.3799 16.9232 10.0132C16.8704 9.91791 16.7325 9.86977 16.6011 9.81437ZM10.1484 7.07812C9.77374 7.07814 9.39896 7.07408 9.02444 7.08218C8.96193 7.08353 8.85806 7.12592 8.84591 7.16956C8.78787 7.37803 8.75486 7.59347 8.70718 7.83575C9.19931 7.83575 9.65577 7.83575 10.1063 7.83575C10.1063 8.11281 10.1063 8.36529 10.1063 8.63181C9.57412 8.63181 9.06063 8.63181 8.54802 8.63181C8.42277 9.27306 8.30038 9.89966 8.17726 10.53C9.06602 10.8599 9.94969 11.1731 10.8874 11.2907C10.996 11.3044 11.1291 11.2974 11.2198 11.2456C11.438 11.1209 11.6467 10.9747 11.8411 10.8151C11.9312 10.7411 12.0339 10.6171 12.0369 10.513C12.0551 9.89132 12.0459 9.26887 12.0459 8.62144C11.6461 8.62144 11.2684 8.62144 10.8924 8.62144C10.8924 8.34315 10.8924 8.0908 10.8924 7.82186C11.2814 7.82186 11.6534 7.82186 12.0323 7.82186C12.0323 7.56778 12.0323 7.33116 12.0323 7.07812C11.4103 7.07812 10.8028 7.07812 10.1484 7.07812ZM23.0902 7.21633C23.2411 6.96213 23.2875 6.70135 23.2086 6.40493C23.0704 5.88634 22.7089 5.64122 22.2197 5.53524C21.9037 5.46678 21.3468 5.73523 21.1535 6.07221C20.9318 6.45889 20.908 6.85514 21.1458 7.2588C21.2009 7.35221 21.2149 7.5149 21.1725 7.61324C20.9181 8.20297 20.6411 8.78291 20.373 9.36675C20.131 9.89378 19.8907 10.4216 19.6585 10.9297C20.0557 11.052 20.4405 11.1704 20.8363 11.2922C21.2872 10.2038 21.7389 9.11176 22.1924 8.0205C22.2523 7.87632 22.334 7.77439 22.5079 7.72216C22.7515 7.64898 22.9442 7.47769 23.0902 7.21633ZM2.06284 4.6636C0.587974 6.03735 0.533221 8.17668 1.49424 9.52948C1.61403 9.39906 1.72081 9.26213 1.84886 9.14936C1.97038 9.04234 1.98115 8.95041 1.90112 8.81138C1.56571 8.22862 1.51708 7.57829 1.61045 6.94535C1.72765 6.15088 2.11282 5.46992 2.7786 4.98023C3.53107 4.42677 4.36323 4.19717 5.28697 4.406C5.61784 4.4808 5.93842 4.60112 6.21272 4.68506C6.39611 4.5272 6.57692 4.37156 6.76107 4.21304C5.07859 3.18126 3.24015 3.55811 2.06284 4.6636ZM7.64502 8.89401C7.66044 8.81009 7.67585 8.72617 7.69098 8.64374C6.29246 8.64374 4.93148 8.64374 3.56686 8.64374C3.56686 9.32541 3.56686 9.98834 3.56686 10.674C4.81628 10.2528 6.07024 9.93676 7.38347 10.2867C7.47545 9.80464 7.5584 9.36985 7.64502 8.89401ZM16.4954 14.1328C16.9759 13.0263 18.0124 12.368 19.315 12.4728C19.921 12.5216 20.4523 12.7872 20.8934 13.1947C21.347 13.6136 21.6126 14.1529 21.718 14.7557C21.9744 14.7557 22.207 14.7557 22.4405 14.7557C22.218 12.7422 20.1186 11.2918 18.0969 11.8523C16.6401 12.2562 15.6022 13.7256 15.6428 14.7655C15.8211 14.7655 16.0011 14.7774 16.1781 14.7592C16.2412 14.7527 16.3271 14.6849 16.35 14.6249C16.4069 14.4766 16.4333 14.3167 16.4954 14.1328ZM4.875 6.11719C5.12637 5.87323 5.37774 5.62928 5.63777 5.37692C4.77053 4.96895 3.82431 5.11432 3.08324 5.82256C2.49502 6.38472 2.12908 7.38397 2.6137 8.37884C3.36184 7.63058 4.1067 6.8856 4.875 6.11719ZM19.0908 13.2663C18.1493 13.2916 17.4027 13.8327 17.1708 14.7499C18.3979 14.7499 19.6238 14.7499 20.8645 14.7499C20.7584 14.2629 20.4914 13.892 20.099 13.6508C19.8085 13.4721 19.4567 13.3929 19.0908 13.2663ZM13.6065 14.7656C13.6998 14.7656 13.7931 14.7656 13.8879 14.7656C13.728 13.8867 12.889 13.2455 11.9947 13.2764C11.0603 13.3087 10.3125 14.0101 10.2179 14.7656C11.3331 14.7656 12.4476 14.7656 13.6065 14.7656ZM7.92116 7.56443C7.94809 7.40823 7.97502 7.25203 8.00498 7.07831C7.05595 7.07831 6.11351 7.07776 5.17108 7.0801C5.12893 7.0802 5.07559 7.09473 5.04653 7.12249C4.81856 7.3402 4.59525 7.56279 4.33783 7.81602C5.55046 7.81602 6.70703 7.81602 7.85059 7.81602C7.87608 7.73585 7.89686 7.67048 7.92116 7.56443Z" fill="#454545"/>
</svg>
