<svg width="25" height="25" viewBox="0 0 25 25" fill="none" xmlns="http://www.w3.org/2000/svg">
<path d="M3.30425 2.82532C2.76779 2.96805 2.37405 3.30764 2.12796 3.82442L2 4.10004V7.37297V10.6459L2.14273 10.9363C2.43311 11.5318 2.9302 11.8714 3.62908 11.9452C3.93915 11.9846 4.02774 12.0141 4.13602 12.1175L4.26398 12.2455L4.28859 13.3922C4.3132 14.598 4.32304 14.6276 4.56913 14.8638C4.82998 15.1148 5.21387 15.1739 5.51902 15.0065C5.61253 14.9573 6.22282 14.3421 6.87741 13.6432C7.52707 12.9443 8.13244 12.3193 8.22595 12.2553C8.50649 12.0683 8.85101 11.9944 9.56465 11.9649L10.2389 11.9354L10.2537 14.2191L10.2685 16.5027L10.426 16.8325C10.6917 17.3935 11.1396 17.7381 11.745 17.8513C11.9271 17.8857 12.9557 17.9054 14.5799 17.9054C17.3557 17.9054 17.3557 17.9054 17.7839 18.1859C17.8872 18.2598 18.4779 18.8602 19.0881 19.5246C19.7034 20.1891 20.2792 20.7895 20.3678 20.8535C20.7468 21.1291 21.3472 21.0012 21.5884 20.5927C21.7065 20.3859 21.7114 20.3613 21.7114 19.3622C21.7114 17.9989 21.7311 17.9497 22.3463 17.8857C23.0501 17.807 23.5472 17.4723 23.8376 16.8817L24 16.5519V13.279V10.0061L23.872 9.73538C23.6899 9.35149 23.4438 9.09064 23.0796 8.89377L22.7696 8.72644L19.2653 8.71167L15.7611 8.69691L15.7463 6.42308L15.7315 4.14925L15.5937 3.85395C15.4067 3.45529 15.2492 3.26335 14.9539 3.06648C14.4519 2.73673 14.6783 2.74657 8.84116 2.75149C4.36734 2.75149 3.53557 2.76626 3.30425 2.82532ZM14.2452 3.58818C14.3485 3.61771 14.5208 3.71614 14.6291 3.81458C14.9638 4.1148 14.9736 4.19847 14.9588 6.5855L14.9441 8.67722L13.2461 8.70183C11.3069 8.73136 11.3119 8.73136 10.8295 9.17923C10.4112 9.56805 10.2438 10.0307 10.2438 10.7985V11.1479L9.47114 11.1725C8.6 11.2021 8.25056 11.2906 7.77315 11.6155C7.64027 11.7041 7.01029 12.3439 6.37047 13.0329C5.73065 13.722 5.17942 14.2929 5.14497 14.3027C5.10067 14.3126 5.08098 14.0616 5.06622 13.2199C5.05145 12.0437 5.04653 12.0141 4.75615 11.6302C4.58389 11.394 4.2 11.2119 3.81119 11.1774C3.29441 11.1331 2.99911 10.9461 2.83669 10.5622C2.77271 10.4047 2.76286 9.98147 2.76779 7.36312C2.76779 5.17789 2.78747 4.30675 2.82685 4.19847C2.94004 3.90809 3.14676 3.71122 3.43714 3.60295C3.58971 3.54881 4.56913 3.53896 8.84116 3.53404C12.3749 3.53404 14.1172 3.55373 14.2452 3.58818ZM22.8286 9.66648C22.932 9.74523 23.0649 9.91257 23.1289 10.0307L23.2371 10.2472V13.2642C23.2371 16.5618 23.2421 16.483 22.9517 16.7882C22.7548 16.9998 22.6072 17.0589 22.1544 17.113C21.7065 17.1721 21.5195 17.2607 21.2537 17.5609C20.9732 17.866 20.9239 18.122 20.9239 19.2441C20.9239 19.9971 20.9092 20.2186 20.86 20.2186C20.8255 20.2186 20.289 19.6625 19.6689 18.9882C18.5025 17.7135 18.2268 17.4723 17.6855 17.2557C17.4049 17.1425 17.3902 17.1425 14.5996 17.1179C11.9812 17.0933 11.7794 17.0884 11.6072 16.9998C11.3463 16.8718 11.1445 16.6012 11.0805 16.3108C11.0412 16.1385 11.0313 15.1246 11.0412 13.1314L11.0559 10.2029L11.1691 9.99131C11.238 9.85843 11.3709 9.72554 11.5136 9.63203L11.74 9.4893L17.1884 9.49914L22.6367 9.51391L22.8286 9.66648Z" fill="black"/>
<path d="M4.27849 5.65248C4.15545 5.78044 4.13576 5.82966 4.16037 5.96254C4.17514 6.05113 4.23912 6.15941 4.29326 6.20371C4.39169 6.28738 4.66731 6.2923 8.58006 6.2923H12.7586L12.8767 6.16925C13.0686 5.98223 13.0096 5.66724 12.7684 5.55896C12.6848 5.51959 11.4494 5.50483 8.54068 5.50483H4.42614L4.27849 5.65248Z" fill="black"/>
<path d="M4.2844 8.49985C4.13183 8.62289 4.12691 8.90835 4.27948 9.06092C4.38776 9.1692 4.40744 9.1692 6.10051 9.18396C7.04055 9.19381 7.88216 9.18396 7.97075 9.1692C8.31527 9.10522 8.44816 8.73609 8.21192 8.51461C8.09872 8.40634 8.07903 8.40634 6.24816 8.40634C4.51572 8.40634 4.39268 8.41126 4.2844 8.49985Z" fill="black"/>
<path d="M12.8513 11.5831C12.6888 11.7554 12.6987 11.9818 12.8709 12.1344L13.0038 12.2476H17.1085C20.0123 12.2476 21.2477 12.2328 21.3313 12.1934C21.5725 12.0851 21.6316 11.7702 21.4396 11.5831L21.3215 11.4601H17.143H12.9645L12.8513 11.5831Z" fill="black"/>
<path d="M12.9746 14.3639C12.7236 14.4624 12.6547 14.8069 12.8516 15.0037C12.95 15.1022 13.014 15.1022 15.7505 15.1022H18.5558L18.6543 14.9742C18.8265 14.7527 18.7724 14.5017 18.5263 14.3738C18.3983 14.3049 13.1371 14.295 12.9746 14.3639Z" fill="black"/>
</svg>
