<svg width="24" height="24" viewBox="0 0 24 24" fill="none" xmlns="http://www.w3.org/2000/svg">
<path d="M14.9643 0.762421C15.4357 0.18038 16.6577 0.308079 16.8882 1.20834C16.9088 1.28892 16.9204 1.37419 16.9205 1.4573C16.9225 2.64475 16.9219 3.8322 16.9219 5.01965C16.9219 5.06652 16.9201 5.11348 16.9223 5.16025C16.9344 5.42434 17.103 5.62864 17.3046 5.62493C17.4944 5.62144 17.6588 5.41856 17.6711 5.1683C17.6753 5.08257 17.6719 4.99646 17.6719 4.91053C17.6719 3.79339 17.7029 2.67504 17.6594 1.55959C17.6361 0.960472 18.2136 0.385304 18.8072 0.404201C19.2867 0.419462 19.8022 0.789833 19.8911 1.21141C19.9084 1.29327 19.9205 1.378 19.9206 1.46143C19.9223 3.09417 19.9279 4.72695 19.9187 6.35964C19.9154 6.93227 19.6494 7.39409 19.2457 7.79081C18.9628 8.06883 18.6182 8.21742 18.2542 8.34679C17.7758 8.51684 17.3543 8.94316 17.3482 9.5337C17.334 10.905 17.3436 12.2766 17.3436 13.6499C17.5533 13.5569 17.7878 13.4271 18.0381 13.3459C19.4242 12.896 20.8415 13.2429 21.7862 14.3665C22.2758 14.9489 22.556 15.6317 22.5492 16.4137C22.5458 16.8004 22.5478 17.1838 22.4223 17.5581C22.4055 17.6083 22.4785 17.7145 22.537 17.7597C22.7971 17.9606 23.0839 18.1297 23.3287 18.3468C23.5645 18.5561 23.6858 18.8337 23.6757 19.1685C23.6609 19.6602 23.6578 20.1532 23.676 20.6447C23.6933 21.1147 23.4538 21.4356 23.1136 21.7002C22.2904 22.3402 21.3109 22.6276 20.3232 22.8651C19.4993 23.0632 18.6611 23.2109 17.8224 23.3355C17.1453 23.436 16.4585 23.474 15.7752 23.5297C15.2821 23.57 14.788 23.6125 14.2937 23.6216C12.8907 23.6472 11.4872 23.68 10.0844 23.6624C9.3148 23.6528 8.54617 23.5496 7.77748 23.484C7.27872 23.4415 6.77742 23.4122 6.28309 23.3381C5.58767 23.2337 4.89475 23.1074 4.20607 22.9648C3.32266 22.7819 2.45537 22.5357 1.64806 22.1228C1.17464 21.8807 0.715586 21.6067 0.488115 21.0856C0.449401 20.9969 0.425898 20.8942 0.42478 20.7977C0.418721 20.2743 0.442415 19.7498 0.416023 19.2277C0.39059 18.7246 0.640533 18.3672 1.01026 18.1154C1.40462 17.8468 1.85683 17.6641 2.27782 17.433C2.36044 17.3877 2.45752 17.3026 2.47721 17.2191C2.63866 16.5349 2.93385 15.9318 3.40855 15.4013C3.98743 14.7544 4.68871 14.3413 5.52845 14.1613C5.75774 14.1122 5.85027 14.0016 5.91507 13.7793C6.03409 13.3711 6.05192 12.9619 6.0492 12.5435C6.04229 11.4811 6.04505 10.4186 6.04771 9.35616C6.04897 8.85277 5.96803 8.37764 5.61415 7.98868C5.40315 7.75677 5.16337 7.54618 4.98137 7.29367C4.42184 6.51741 4.18278 5.64018 4.16498 4.68313C4.14964 3.8587 4.27187 3.06905 4.64728 2.33766C5.10506 1.4458 5.76567 0.757942 6.77684 0.510485C7.76876 0.267739 8.68184 0.441249 9.47785 1.11058C10.312 1.81194 10.7394 2.72576 10.878 3.79057C11.0142 4.83719 10.915 5.8512 10.4233 6.79964C10.2081 7.21468 9.92118 7.57637 9.57474 7.90285C9.2929 8.16846 9.07308 8.49593 9.0874 8.93242C9.10641 9.51202 9.09209 10.0927 9.09209 10.7305C9.23779 10.6003 9.36992 10.4823 9.50205 10.3643C9.52738 10.3388 9.55271 10.3133 9.57803 10.2877C9.61818 10.3647 9.64252 10.4574 9.70088 10.5163C10.4099 11.2324 11.1207 11.9469 11.841 12.6516C11.923 12.7317 12.0633 12.7835 12.1805 12.7914C12.8806 12.8383 13.5819 12.8685 14.2965 12.905C14.2965 11.8943 14.3004 10.8252 14.2923 9.75616C14.291 9.59113 14.2496 9.42177 14.2003 9.26262C14.0574 8.80158 13.7604 8.4896 13.293 8.33513C12.4654 8.06162 11.9078 7.52235 11.6976 6.65829C11.6796 6.58425 11.673 6.50575 11.6729 6.42931C11.6716 4.76532 11.6714 3.10132 11.6722 1.43733C11.6725 0.901129 12.1548 0.423636 12.6941 0.421894C13.3591 0.419746 13.7287 0.661963 13.8931 1.21533C13.9166 1.29474 13.9206 1.38225 13.9207 1.46602C13.9224 2.6691 13.9207 3.87217 13.9241 5.07524C13.9243 5.18078 13.9215 5.31302 13.9794 5.38533C14.0619 5.48828 14.198 5.60491 14.3137 5.60756C14.4152 5.60989 14.5438 5.47986 14.6158 5.37705C14.6707 5.29867 14.6695 5.17143 14.6698 5.06586C14.6731 3.86279 14.673 2.65971 14.671 1.45664C14.6706 1.18817 14.7584 0.960566 14.9643 0.762421ZM12.8002 17.1866C13.0117 16.7641 13.317 16.4151 13.6854 16.1289C14.3111 15.6427 15.0182 15.3804 15.8231 15.4184C15.8791 15.421 15.967 15.3893 15.9896 15.3468C16.1134 15.1137 16.2214 14.8723 16.3361 14.6313C16.3297 14.6239 16.3218 14.608 16.3091 14.6007C14.929 13.8146 13.43 13.5296 11.8597 13.5491C11.8028 13.5498 11.7332 13.5662 11.6916 13.6014C11.1845 14.0311 10.6074 14.3138 9.95445 14.4379C9.75835 14.4752 9.6454 14.5809 9.61018 14.78C9.4692 15.5771 9.08299 16.2501 8.51636 16.8121C7.97833 17.3456 7.32812 17.7024 6.58115 17.8537C6.34423 17.9017 6.23158 18.0074 6.18261 18.2455C5.99673 19.1495 5.51078 19.8775 4.7711 20.5502C4.50536 20.2795 4.24828 20.0176 3.99566 19.7603C3.96179 19.9687 3.92609 20.1873 3.89077 20.406C3.87175 20.5238 3.9162 20.5986 4.0372 20.6225C4.59183 20.7322 5.14279 20.8677 5.70176 20.9464C6.62963 21.077 7.56097 21.1893 8.49401 21.2748C9.17248 21.337 9.85594 21.3461 10.5374 21.3742C11.0183 21.394 11.4996 21.418 11.9807 21.4183C12.4384 21.4186 12.8961 21.391 13.3538 21.3745C13.4104 21.3725 13.4668 21.3634 13.5427 21.3556C12.2413 20.2063 12.1569 18.3245 12.8002 17.1866ZM9.80093 6.21423C10.1451 5.47736 10.1845 4.7024 10.0861 3.91107C9.98516 3.10024 9.67111 2.38916 9.06687 1.8277C8.18907 1.01203 6.99993 0.972214 6.09784 1.76309C5.0672 2.66667 4.85296 3.88293 4.98745 5.16308C5.08224 6.06528 5.51956 6.82393 6.19747 7.45599C6.5911 7.823 6.80309 8.31384 6.79887 8.87867C6.7917 9.8392 6.79666 10.7998 6.79739 11.7604C6.79744 11.8315 6.80446 11.9026 6.80985 12.0039C6.89015 11.9064 6.93247 11.8261 6.99858 11.7796C7.36716 11.5201 7.73539 11.2591 8.11729 11.0203C8.24466 10.9406 8.30341 10.8722 8.30085 10.7174C8.29107 10.124 8.30678 9.53018 8.29415 8.93692C8.28123 8.33014 8.5153 7.82792 8.93082 7.41223C9.27793 7.06499 9.59339 6.70207 9.80093 6.21423ZM15.8522 1.21916C15.5769 1.22944 15.423 1.40788 15.4225 1.72954C15.421 2.94808 15.4225 4.16662 15.4205 5.38516C15.4204 5.46836 15.4057 5.55249 15.3896 5.63457C15.3076 6.05138 14.7785 6.41911 14.3283 6.43931C13.7119 6.46696 13.1316 5.8901 13.1588 5.25834C13.2059 4.16681 13.1719 3.07178 13.1719 1.97822C13.1719 1.86106 13.1842 1.74208 13.168 1.62715C13.1422 1.44435 13.0574 1.28543 12.872 1.22343C12.7032 1.16696 12.585 1.2777 12.5043 1.40392C12.4538 1.48293 12.4248 1.59063 12.4254 1.68518C12.4361 3.2286 12.446 4.7721 12.4732 6.31528C12.4808 6.74693 12.6894 7.10275 13.0656 7.32028C13.3801 7.50214 13.7429 7.60508 14.0449 7.80313C14.6429 8.19534 15.0366 8.74011 15.0442 9.48725C15.0549 10.5416 15.0469 11.5962 15.0469 12.6507C15.0469 13.1425 15.0469 13.1425 15.5106 13.3324C15.5318 13.3411 15.5519 13.3523 15.5729 13.3615C15.8908 13.5012 16.2087 13.6407 16.5469 13.7891C16.5469 13.6727 16.5469 13.5872 16.5469 13.5016C16.5469 12.1425 16.5466 10.7834 16.5477 9.42422C16.5478 9.34712 16.5485 9.26736 16.567 9.19335C16.7841 8.32516 17.3417 7.77869 18.1802 7.50409C18.5087 7.39648 18.7556 7.19704 18.9378 6.90228C19.1186 6.60958 19.1649 6.28361 19.1674 5.95737C19.178 4.56706 19.172 3.17663 19.1718 1.78624C19.1718 1.44347 19.0239 1.21961 18.7983 1.21885C18.5708 1.21809 18.4221 1.44038 18.422 1.78345C18.4218 2.98637 18.4226 4.18929 18.4204 5.3922C18.4202 5.47487 18.4085 5.56077 18.3842 5.63963C18.2135 6.19379 17.8641 6.42333 17.2033 6.42189C16.648 6.42068 16.1724 5.94687 16.1721 5.39246C16.1715 4.18954 16.1694 2.98662 16.174 1.78372C16.175 1.54099 16.1097 1.34531 15.8522 1.21916ZM13.4761 22.1719C11.8343 22.1406 10.1925 22.1107 8.55078 22.0765C8.33494 22.072 8.11837 22.0554 7.90417 22.0283C7.2041 21.9397 6.5024 21.8594 5.8062 21.746C5.09795 21.6306 4.39004 21.5029 3.69185 21.3386C2.81501 21.1323 1.95871 20.8562 1.18543 20.3597C1.15924 20.6906 1.17942 20.8652 1.42622 21.0276C1.8187 21.2858 2.23384 21.5294 2.67108 21.696C3.80401 22.1277 4.9908 22.3559 6.19218 22.4979C7.10104 22.6052 8.01248 22.6913 8.9235 22.7794C9.22378 22.8085 9.52619 22.8174 9.82786 22.8299C10.6105 22.8621 11.393 22.8974 12.176 22.918C12.4378 22.9248 12.7006 22.8874 12.9633 22.8756C13.6912 22.8428 14.4205 22.8296 15.147 22.7773C15.9606 22.7186 16.7744 22.6463 17.5831 22.5412C18.3257 22.4447 19.0657 22.3167 19.7994 22.1661C20.6607 21.9892 21.506 21.7469 22.2839 21.3207C22.653 21.1185 22.9721 20.87 22.9137 20.3613C22.753 20.4529 22.6059 20.5486 22.4491 20.624C21.731 20.9695 20.9737 21.1913 20.2011 21.3859C18.6847 21.768 17.1378 21.9257 15.5891 22.0722C14.9033 22.137 14.2117 22.1405 13.4761 22.1719ZM14.0939 20.7625C14.126 20.7827 14.1603 20.8001 14.1898 20.8236C14.5525 21.1127 14.9415 21.3285 15.4289 21.2816C15.7738 21.2485 16.1187 21.2143 16.4643 21.1891C16.7017 21.1717 16.925 21.1373 17.1381 21.008C17.6185 20.7166 17.9582 20.3157 18.1742 19.8077C17.1725 19.4517 16.4446 18.8181 16.0286 17.8409C16.0069 17.7901 15.9425 17.7313 15.8907 17.7234C15.1794 17.6145 14.5311 18.3452 14.7523 19.0875C14.9028 19.5924 15.2624 19.8501 15.7812 19.8914C15.7812 20.154 15.7812 20.4072 15.7812 20.6579C14.9501 20.7673 14.0491 20.0276 13.929 19.1355C13.8544 18.5812 13.9314 18.0365 14.3153 17.5915C14.6981 17.148 15.1798 16.8887 15.7795 16.9148C15.7795 16.6702 15.7795 16.4486 15.7795 16.2083C15.6152 16.2213 15.4669 16.2197 15.324 16.2466C14.6908 16.366 14.1797 16.6866 13.7713 17.1859C13.4723 17.5514 13.2788 17.9669 13.2255 18.4266C13.1206 19.3303 13.4018 20.1106 14.0939 20.7625ZM21.6064 17.4508C21.7408 17.1147 21.7563 16.764 21.7528 16.4066C21.7461 15.7189 21.4515 15.1508 20.9814 14.6907C20.4647 14.1849 19.8288 13.932 19.0818 13.9641C18.0137 14.0099 17.2581 14.5415 16.817 15.471C16.3201 16.5181 16.5886 17.7562 17.5147 18.5303C18.1822 19.0883 18.9384 19.2507 19.7579 19.0689C20.6373 18.8738 21.2436 18.3188 21.6064 17.4508ZM9.92658 12.0331C9.94081 12.0153 9.96939 11.984 9.96723 11.9817C9.80146 11.8061 9.63498 11.6312 9.46314 11.4616C9.44148 11.4403 9.38593 11.4342 9.3542 11.445C9.00163 11.5647 8.62191 11.6392 8.30486 11.822C7.47526 12.3002 6.88681 12.9835 6.69978 13.9589C6.59862 14.4864 6.34128 14.8444 5.75136 14.9246C5.44932 14.9657 5.14146 15.0892 4.87487 15.2427C4.02405 15.7323 3.46785 16.4604 3.2414 17.4245C3.21842 17.5223 3.18546 17.6612 3.23281 17.724C3.37401 17.9112 3.5529 18.07 3.73158 18.255C3.79371 18.1402 3.84364 18.0703 3.87092 17.9925C3.91622 17.8633 3.95376 17.7304 3.98278 17.5965C4.20941 16.5508 4.83881 15.8677 5.87651 15.6342C6.79335 15.4279 7.23436 14.8783 7.42327 13.984C7.57807 13.2512 8.07521 12.7214 8.77243 12.4242C9.1346 12.2699 9.52008 12.1702 9.92658 12.0331ZM8.13247 14.4379C8.03656 14.9776 7.77483 15.4286 7.37762 15.7979C7.01552 16.1345 6.56984 16.3041 6.0919 16.4082C5.44744 16.5486 5.0164 16.9344 4.82801 17.5713C4.69939 18.0062 4.62049 18.4592 4.33635 18.8027C4.50419 18.9749 4.66004 19.1347 4.8217 19.3005C5.115 18.9567 5.30603 18.5578 5.38612 18.1172C5.49191 17.5353 5.75427 17.1973 6.21164 17.11C7.50103 16.8639 8.34528 16.1064 8.76462 14.8701C8.83045 14.676 8.85055 14.466 8.92028 14.2737C9.07335 13.8516 9.43995 13.7218 9.83633 13.6403C10.2898 13.5471 10.7051 13.3733 11.0531 13.0634C10.8868 12.8931 10.7292 12.7317 10.6278 12.6279C10.1756 12.7843 9.76707 12.9409 9.34929 13.0668C8.67229 13.2707 8.28184 13.7173 8.13247 14.4379ZM19.3823 19.9219C19.2964 19.9219 19.2074 19.9081 19.1256 19.9264C19.0624 19.9406 18.9824 19.9812 18.9543 20.0338C18.8012 20.3202 18.6619 20.614 18.5181 20.9047C18.5648 20.9047 18.6293 20.9156 18.6889 20.903C19.7035 20.6894 20.727 20.5033 21.6901 20.1032C22.0702 19.9453 22.4621 19.7903 22.7467 19.465C22.8895 19.3018 22.9398 19.1419 22.7864 18.9517C22.5787 18.6941 22.3006 18.5508 22.0127 18.4196C21.3163 19.448 20.2659 19.9013 19.3823 19.9219ZM3.28047 19.3395C3.39809 19.0973 3.29615 18.9337 3.1055 18.7789C2.94301 18.6469 2.8012 18.4884 2.65765 18.3347C2.5662 18.2368 2.4809 18.2025 2.3545 18.2774C2.04625 18.46 1.72583 18.6229 1.42331 18.8143C1.19803 18.9568 1.14876 19.2312 1.30196 19.4122C1.39052 19.5169 1.49273 19.6247 1.61195 19.6862C2.08383 19.9296 2.56486 20.1552 3.0581 20.3951C3.13944 20.0159 3.20786 19.697 3.28047 19.3395Z" fill="#454545"/>
</svg>
