<svg width="25" height="25" viewBox="0 0 25 25" fill="none" xmlns="http://www.w3.org/2000/svg">
<path d="M2.13125 0.593746C1.53594 0.696871 0.954687 1.15156 0.682812 1.73281L0.523438 2.07031V12.3594V22.6484L0.63125 22.9062C0.846875 23.4359 1.23594 23.825 1.76562 24.0406L2.02344 24.1484L6.85156 24.1625C10.1094 24.1719 11.7547 24.1578 11.9094 24.125C12.0359 24.0969 12.2609 24.0125 12.4109 23.9422L12.6734 23.8062L12.9969 23.9234C14.5016 24.4672 15.9734 24.5703 17.4641 24.2375C19.7375 23.7266 21.6969 22.1891 22.7281 20.1078C22.9344 19.6953 22.9391 19.5641 22.7656 19.3906C22.6625 19.2875 22.4375 19.2687 22.2922 19.3437C22.2453 19.3719 22.1141 19.5687 22.0109 19.7797C20.9047 21.9922 18.7578 23.4125 16.1937 23.6328L15.8281 23.6656V23.15C15.8281 22.7094 15.8141 22.6203 15.7344 22.5219C15.6219 22.3719 15.4578 22.3391 15.2703 22.4187C15.0734 22.4984 15.0312 22.6391 15.0312 23.1687V23.6141L14.8109 23.5859C14.0984 23.4875 13.2828 23.2297 12.5844 22.8781C10.5219 21.8422 9.02656 19.6578 8.81562 17.3797L8.78281 17.0469H9.27969C9.73437 17.0469 9.78594 17.0375 9.90312 16.9344C10.0719 16.7937 10.0859 16.5312 9.93125 16.3766C9.8375 16.2828 9.76719 16.2734 9.30312 16.2594L8.78281 16.2406L8.81562 15.9125C8.97969 14.1453 9.95937 12.3594 11.3937 11.2062C12.3031 10.475 13.4562 9.95 14.5062 9.78125C14.6797 9.75312 14.8672 9.72031 14.9234 9.71093C15.0219 9.6875 15.0219 9.70156 15.0406 10.2078C15.0547 10.7094 15.0594 10.7328 15.1859 10.8406C15.3641 10.9906 15.5234 10.9859 15.6922 10.8172C15.8234 10.6812 15.8281 10.6672 15.8281 10.175V9.67343L16.3344 9.70156C19.1234 9.875 21.6687 11.9469 22.4656 14.6984C22.5781 15.0922 22.7328 15.9219 22.7 15.9547C22.6906 15.9687 22.5312 15.8984 22.3484 15.8094C21.875 15.5656 21.6172 15.5891 21.5 15.875C21.4531 15.9875 21.4531 16.0437 21.5 16.1609C21.5516 16.2828 21.6734 16.3625 22.3016 16.6766C23.0328 17.0375 23.1453 17.0797 23.3047 17.0141C23.3516 17 23.6375 16.6484 23.9422 16.2406C24.5516 15.4297 24.5891 15.3266 24.3828 15.1062C24.3031 15.0219 24.2234 14.9844 24.1062 14.9844C23.9703 14.9844 23.9094 15.0219 23.7312 15.2281C23.6141 15.3641 23.5156 15.4906 23.5156 15.5094C23.5156 15.5328 23.4969 15.5469 23.4687 15.5469C23.4453 15.5469 23.4219 15.4953 23.4219 15.4297C23.4219 15.0547 23.0844 13.9859 22.7422 13.2734C21.6922 11.0937 19.6953 9.53749 17.3047 9.03125C16.3531 8.82968 14.9187 8.85781 13.9297 9.09687L13.4891 9.20468L13.475 5.6375L13.4609 2.07031L13.3016 1.73281C13.0203 1.13281 12.4531 0.696871 11.8109 0.593746C11.4828 0.537495 2.45469 0.542183 2.13125 0.593746ZM11.8531 1.40937C12.1391 1.49375 12.3828 1.68593 12.5375 1.94843C12.6594 2.15468 12.6641 2.19218 12.6781 2.94687L12.6969 3.73437H6.99687H1.29687V2.99375C1.29687 2.29062 1.30156 2.23906 1.41875 2.00937C1.56406 1.71875 1.80781 1.50312 2.09375 1.41406C2.40312 1.32031 11.5344 1.31093 11.8531 1.40937ZM12.6875 6.99218V9.5L12.2984 9.69218C11.7922 9.94531 11.2437 10.3062 10.8172 10.6625C10.625 10.8219 10.4656 10.9484 10.4562 10.9391C10.4469 10.9297 10.5734 10.7891 10.7328 10.6203C11.2156 10.1281 11.4219 9.58437 11.4219 8.79687C11.4219 8.54843 11.3891 8.22499 11.3516 8.07968C11.0281 6.8375 9.94062 6.15781 9.00781 6.61718C7.65781 7.27343 7.39531 9.50937 8.52969 10.6484L8.81094 10.9297L8.77812 12.1016L8.74531 13.2734L8.53906 13.7891C8.15937 14.7312 7.99531 15.6031 7.99531 16.6719C7.99531 17.5625 8.13125 18.4109 8.39375 19.1516C8.43594 19.2641 8.46875 19.3719 8.46875 19.3953C8.46875 19.4187 6.89844 19.4375 4.88281 19.4375H1.29687V11.9609V4.48437H6.99219H12.6875V6.99218ZM9.95 7.34843C10.4328 7.57812 10.7422 8.38437 10.6297 9.10625C10.5594 9.55156 10.3391 9.99218 10.1 10.1469C9.99219 10.2172 9.84687 10.3344 9.76719 10.4047L9.62656 10.5359L9.65937 11.1875C9.68281 11.6187 9.67344 11.8437 9.64062 11.8672C9.60781 11.8859 9.59375 11.675 9.59375 11.2156C9.59375 10.8453 9.57969 10.5031 9.56562 10.4609C9.54687 10.4187 9.45781 10.3484 9.36406 10.2969C9.12031 10.175 8.91406 9.94062 8.76406 9.61718C8.64219 9.35937 8.63281 9.28906 8.63281 8.79687C8.63281 8.28124 8.64219 8.23906 8.78281 7.95312C9.0875 7.33437 9.49062 7.12343 9.95 7.34843ZM9.12031 20.6891C9.47656 21.275 9.89844 21.7953 10.3953 22.2734C10.7797 22.6391 11.6187 23.2812 11.7125 23.2812C11.7312 23.2812 11.75 23.3 11.75 23.3281C11.75 23.3609 10.1281 23.375 6.98281 23.375C2.28125 23.375 2.20625 23.3703 2 23.2766C1.71875 23.15 1.54062 22.9766 1.40937 22.6953C1.30156 22.4703 1.29687 22.4187 1.29687 21.3453V20.2344L5.075 20.2437L8.85781 20.2578L9.12031 20.6891Z" fill="#454545"/>
<path d="M4.9718 2.25314C4.80305 2.39376 4.78899 2.65626 4.94368 2.81095C5.0468 2.91408 5.05618 2.91408 6.91712 2.92814C8.06555 2.93751 8.82962 2.92345 8.90462 2.89533C9.0593 2.83439 9.18587 2.6047 9.14368 2.44533C9.12962 2.3797 9.0593 2.28595 8.99837 2.23439C8.88118 2.14533 8.80149 2.14064 6.98743 2.14064H5.09837L4.9718 2.25314Z" fill="#454545"/>
<path d="M3.58438 6.92653C3.43438 7.0109 3.40156 7.14684 3.26094 8.27184C3.11094 9.43434 3.11094 9.66872 3.26094 9.95934C3.41563 10.2593 3.86563 10.625 4.08594 10.625C4.175 10.625 4.175 10.3297 4.04375 14.3C3.98281 16.0765 3.95 17.5953 3.96875 17.675C4.14219 18.4437 5.02344 18.7531 5.62813 18.2562C5.72656 18.1765 5.84844 18.0218 5.89531 17.9187C6.00781 17.6703 6.00781 17.3468 5.89062 13.8828C5.83906 12.3875 5.79688 11.0468 5.79688 10.9062V10.6484L6.02656 10.564C6.34063 10.4562 6.65938 10.0953 6.7625 9.7484C6.83281 9.50465 6.82813 9.44372 6.69219 8.33278C6.6125 7.69059 6.5375 7.13278 6.51875 7.09059C6.48594 7.00153 6.26094 6.87497 6.13906 6.87497C6.01719 6.87497 5.84375 7.00622 5.79688 7.12809C5.77344 7.19372 5.81094 7.64372 5.9 8.34684C6.07812 9.75778 6.06406 9.79997 5.47344 9.87965C5.29531 9.90309 5.18281 9.94997 5.10313 10.0343L4.98125 10.1515L5.10313 13.8218C5.23438 17.8109 5.23906 17.7031 4.97656 17.7031C4.74219 17.7031 4.70469 17.6 4.7375 17.0047C4.75156 16.7047 4.8125 15.0547 4.86406 13.3297C4.95781 10.414 4.95781 10.1937 4.8875 10.0812C4.79375 9.94059 4.63438 9.87497 4.39531 9.87497C4.19375 9.87497 3.99219 9.72028 3.94531 9.53278C3.92656 9.46715 3.96875 8.98434 4.03438 8.45465C4.18906 7.24059 4.18906 7.13747 4.03906 6.99215C3.92188 6.87028 3.725 6.84215 3.58438 6.92653Z" fill="#454545"/>
<path d="M4.77969 6.98751L4.64844 7.10001V8.20626C4.64844 9.28438 4.65313 9.31251 4.75156 9.41563C4.90625 9.57032 5.16875 9.55626 5.30938 9.38751C5.42188 9.26095 5.42188 9.24688 5.42188 8.23438C5.42188 7.1422 5.39844 7.01563 5.20156 6.92657C5.03281 6.84688 4.925 6.86563 4.77969 6.98751Z" fill="#454545"/>
<path d="M6.55162 20.6609C6.2188 20.7266 5.90943 20.9656 5.73599 21.2891C5.60474 21.5375 5.59537 22.0578 5.72193 22.2969C6.00787 22.8406 6.56568 23.0984 7.1188 22.9344C8.10787 22.6438 8.26724 21.2703 7.36255 20.7922C7.09068 20.6469 6.83755 20.6047 6.55162 20.6609ZM7.0813 21.5469C7.22662 21.6875 7.20787 21.9547 7.0438 22.0906C6.90318 22.2125 6.7813 22.2313 6.62662 22.1469C6.36412 22.0109 6.3313 21.7531 6.54693 21.5375C6.6688 21.4203 6.71568 21.4016 6.84224 21.425C6.92662 21.4438 7.03443 21.4953 7.0813 21.5469Z" fill="#454545"/>
<path d="M15.2 12.0828L15.0782 12.1765V13.9297V15.6828L14.9516 15.7531C14.7828 15.8375 14.5953 16.0437 14.4922 16.2453C14.4313 16.3625 14.4172 16.489 14.4313 16.7187C14.45 17.0937 14.6094 17.3656 14.9 17.5297L15.0782 17.6328V18.95C15.0782 20.2109 15.0828 20.2718 15.1766 20.3937C15.3032 20.5578 15.5797 20.5625 15.725 20.4078C15.8282 20.3 15.8282 20.2718 15.8282 18.964V17.6234L16.0016 17.5109C16.5922 17.1265 16.6063 16.2312 16.0344 15.8187L15.8282 15.6734V13.9437V12.214L15.711 12.1015C15.5703 11.9562 15.3688 11.9515 15.2 12.0828ZM15.5938 16.4843C15.6453 16.5359 15.6875 16.6156 15.6875 16.6578C15.6875 16.7656 15.5516 16.9062 15.4438 16.9062C15.3407 16.9062 15.1719 16.7468 15.1719 16.6484C15.1719 16.6109 15.2141 16.5359 15.2657 16.4843C15.3172 16.4328 15.3922 16.3906 15.4297 16.3906C15.4672 16.3906 15.5422 16.4328 15.5938 16.4843Z" fill="#454545"/>
</svg>
