<svg width="25" height="25" viewBox="0 0 25 25" fill="none" xmlns="http://www.w3.org/2000/svg">
<g clip-path="url(#clip0_2_572)">
<path d="M6.37823 0.809376C5.87198 0.996876 5.60011 1.41406 5.56261 2.07031L5.53917 2.49219L5.09386 2.51563C4.56417 2.54844 4.35792 2.6375 4.0673 2.96563C3.72042 3.36406 3.73448 3.13438 3.73448 8C3.73448 12.7719 3.72042 12.5469 4.01105 12.5469C4.31105 12.5469 4.2923 12.8281 4.30636 7.96719C4.32042 3.57031 4.32042 3.55156 4.41886 3.42031C4.61573 3.15781 4.78917 3.07813 5.1923 3.07813H5.56261V3.57969C5.56261 4.01563 5.58136 4.11875 5.67511 4.32031C6.03605 5.08438 6.96417 5.28594 7.57823 4.73281C7.91105 4.4375 8.0048 4.18906 8.03761 3.57969L8.06105 3.07813H8.70792H9.35948V3.5375C9.35948 4.08125 9.43448 4.34375 9.66886 4.61563C10.2454 5.29063 11.2954 5.15469 11.6892 4.35313C11.8017 4.12344 11.8204 4.01563 11.8392 3.57969L11.8532 3.07813H12.5001H13.147L13.161 3.57969C13.1798 4.01563 13.1985 4.12344 13.311 4.35313C13.7048 5.15469 14.7548 5.29063 15.3314 4.61563C15.5657 4.34375 15.6407 4.08125 15.6407 3.5375V3.07813H16.2923H16.9392L16.9626 3.57969C16.9814 3.96875 17.0142 4.1375 17.0939 4.31094C17.2204 4.58281 17.5814 4.91563 17.8345 4.99063C18.4439 5.17344 19.0767 4.88281 19.3392 4.29688C19.4189 4.12813 19.4376 3.9875 19.4376 3.57969V3.07813H19.8079C20.211 3.07813 20.3845 3.15781 20.5814 3.42031L20.6798 3.55156L20.6939 13.2875C20.7079 24.1344 20.7314 23.2859 20.3845 23.5531L20.2204 23.6797H12.5048H4.78917L4.6298 23.5672C4.54542 23.5063 4.43292 23.3703 4.38605 23.2625C4.30167 23.0797 4.29698 22.8594 4.29698 18.7203C4.29698 14.4359 4.29698 14.375 4.20323 14.2813C4.08136 14.1594 3.94542 14.1641 3.82823 14.2813C3.73448 14.375 3.73448 14.4125 3.74386 18.8422L3.75792 23.3047L3.86105 23.4969C4.02042 23.7922 4.17042 23.9516 4.44698 24.1016L4.69542 24.2422H12.5001H20.3048L20.5439 24.1156C20.8064 23.9797 20.9798 23.7969 21.1392 23.4969L21.2423 23.3047L21.2564 13.4844C21.2704 2.525 21.2939 3.37813 20.9329 2.96563C20.6423 2.6375 20.436 2.54844 19.9064 2.51563L19.461 2.49219L19.4376 2.07031C19.4095 1.56875 19.2876 1.28281 19.0064 1.03906C18.4017 0.523439 17.5064 0.701565 17.1267 1.41406C17.0517 1.55 17.0189 1.71875 17.0001 2.04688L16.9767 2.49219L16.3157 2.50625L15.6548 2.52031L15.6314 2.07969C15.6126 1.70938 15.5845 1.60156 15.472 1.39063C15.0595 0.635939 14.0892 0.518751 13.5126 1.15625C13.2689 1.42813 13.1939 1.62969 13.1657 2.10313L13.1423 2.51563H12.5001H11.8579L11.8345 2.10313C11.8064 1.62969 11.7314 1.42813 11.4876 1.15625C10.911 0.518751 9.94073 0.635939 9.52355 1.39531C9.40636 1.61094 9.38292 1.70938 9.36886 2.08438L9.35011 2.52031L8.68448 2.50625L8.02355 2.49219L8.00011 2.04688C7.97198 1.55938 7.90636 1.38125 7.65323 1.11875C7.34386 0.785938 6.79542 0.65469 6.37823 0.809376ZM7.10011 1.39063C7.18448 1.44219 7.2923 1.55 7.34386 1.63438C7.42823 1.775 7.43761 1.87344 7.43761 2.86719C7.43761 3.8 7.42823 3.96875 7.35323 4.10469C7.11417 4.58281 6.50011 4.59688 6.22823 4.12813C6.12511 3.95 6.12511 3.9125 6.13448 2.83438C6.14855 1.79844 6.15323 1.71875 6.24698 1.59219C6.45323 1.31094 6.82355 1.22188 7.10011 1.39063ZM10.9064 1.4C10.9907 1.46094 11.1079 1.56875 11.1595 1.63906C11.2532 1.77031 11.2579 1.81719 11.2439 2.88125C11.2251 4.06719 11.211 4.15156 10.972 4.33906C10.7751 4.49375 10.5454 4.51719 10.3204 4.39531C9.96886 4.20781 9.94542 4.1375 9.93136 2.9375C9.9173 1.91094 9.9173 1.87813 10.0251 1.67656C10.2173 1.31563 10.6064 1.19844 10.9064 1.4ZM14.7876 1.43281C15.0501 1.62031 15.0876 1.8125 15.0689 2.96563C15.0548 4.13281 15.0314 4.20781 14.6798 4.39531C14.4548 4.51719 14.2251 4.49375 14.0282 4.33906C13.7892 4.15156 13.7751 4.06719 13.7564 2.88125C13.7423 1.81719 13.747 1.77031 13.8407 1.63906C13.8923 1.56875 14.0095 1.45625 14.0985 1.4C14.2907 1.26406 14.572 1.27813 14.7876 1.43281ZM18.5892 1.42344C18.8517 1.61563 18.8751 1.74219 18.8751 2.86719C18.8751 3.84688 18.8704 3.9125 18.772 4.10938C18.5189 4.59688 17.8954 4.59688 17.647 4.10469C17.572 3.96875 17.5626 3.8 17.5626 2.8625C17.5626 1.8125 17.5673 1.775 17.6704 1.62031C17.8814 1.30156 18.3032 1.2125 18.5892 1.42344Z" fill="#1071A3"/>
<path d="M9.97827 6.10625C9.83765 6.2 9.83765 6.425 9.97827 6.51875C10.072 6.58437 10.3908 6.59375 12.5001 6.59375C15.1626 6.59375 15.1251 6.59843 15.1251 6.3125C15.1251 6.02656 15.1626 6.03125 12.5001 6.03125C10.3908 6.03125 10.072 6.04062 9.97827 6.10625Z" fill="#1071A3"/>
<path d="M8.11267 8.4125C8.00017 8.4875 7.94861 8.65156 8.00486 8.75937C8.03767 8.82031 8.08454 8.88125 8.11267 8.9C8.14079 8.91875 10.1142 8.9375 12.5002 8.9375C14.8861 8.9375 16.8595 8.91875 16.8877 8.9C16.9158 8.88125 16.9627 8.82031 16.9955 8.75937C17.0517 8.65156 17.0002 8.4875 16.8877 8.4125C16.8595 8.39375 14.8861 8.375 12.5002 8.375C10.1142 8.375 8.14079 8.39375 8.11267 8.4125Z" fill="#1071A3"/>
<path d="M9.69703 11.8016C9.42046 11.9094 8.97515 12.2938 8.70328 12.6641C7.92046 13.7281 7.4939 15.3547 7.74234 16.3203C7.94859 17.1078 8.64234 17.8438 9.42046 18.0969C9.49546 18.1203 9.50015 18.2422 9.50015 19.7609V21.4016L9.60328 21.4719C9.74859 21.575 10.7048 21.5797 10.8408 21.4813C10.9252 21.4156 10.9298 21.3266 10.9533 19.7703L10.9767 18.1297L11.3564 17.9422C11.858 17.6891 12.2517 17.2953 12.5002 16.7984C12.6033 16.5969 12.697 16.3297 12.7158 16.2031C12.7533 15.9313 12.8048 15.9359 12.847 16.2125C12.9361 16.7703 13.4377 17.4266 14.0002 17.7219L14.3236 17.8953L14.3377 19.6531C14.3517 21.3359 14.3564 21.4156 14.4408 21.4813C14.5111 21.5281 14.6845 21.5469 15.0783 21.5469C15.5517 21.5469 15.6361 21.5328 15.7017 21.4625C15.772 21.3828 15.7814 21.1906 15.7814 19.6344V17.8953L16.0298 17.7828C16.5923 17.525 17.0517 17 17.2345 16.4047C17.3236 16.1188 17.3283 15.9688 17.3283 14.1313C17.3283 11.9609 17.3283 11.975 17.033 11.7969C16.7611 11.6281 16.4142 11.7031 16.208 11.9656C16.1142 12.0828 16.1095 12.1484 16.1095 13.0906C16.1095 13.6391 16.0908 14.1406 16.0627 14.2063C16.0064 14.3563 15.8095 14.375 15.7345 14.2391C15.7064 14.1828 15.6877 13.7563 15.6877 13.1797C15.6877 12.1344 15.6689 12.0406 15.4252 11.8484C15.2752 11.7313 14.9517 11.7172 14.7502 11.8203C14.4783 11.9609 14.4502 12.0922 14.422 13.2219C14.4033 14.1313 14.3892 14.2531 14.3189 14.3C14.258 14.3375 14.2111 14.3375 14.1548 14.3C14.0798 14.2531 14.0658 14.1313 14.047 13.1984C14.0283 12.2891 14.0142 12.1297 13.9392 12.0219C13.7423 11.7359 13.2736 11.6703 13.0298 11.9C12.7861 12.1297 12.7814 12.1484 12.7767 13.7984C12.772 15.2047 12.7673 15.3078 12.7111 15.0031C12.5798 14.2578 12.247 13.4422 11.8252 12.8094C11.197 11.8672 10.4517 11.5156 9.69703 11.8016ZM10.733 12.4484C11.558 13.0156 12.3595 14.9422 12.1861 15.95C11.9986 17.0422 11.0189 17.75 9.90796 17.6C9.29859 17.5203 8.65171 17.0281 8.38921 16.4516C8.21578 16.0672 8.18765 15.4438 8.32359 14.8813C8.58609 13.7656 9.2564 12.6594 9.84234 12.3594C10.1236 12.2188 10.4423 12.2469 10.733 12.4484ZM16.7564 14.2203L16.7423 16.1797L16.6205 16.4422C16.4517 16.7984 16.2173 17.0469 15.8658 17.2391C15.5845 17.3938 15.547 17.3984 15.0783 17.3984C14.6377 17.3984 14.558 17.3844 14.3236 17.2672C13.9955 17.1078 13.658 16.7563 13.4939 16.4L13.3673 16.1328V14.2391C13.3673 12.8094 13.3814 12.3406 13.4236 12.3266C13.4658 12.3125 13.4845 12.5703 13.4939 13.3625C13.508 14.3422 13.5127 14.4266 13.6064 14.5438C13.7705 14.7641 13.9345 14.8578 14.197 14.8813C14.4033 14.8953 14.4736 14.8813 14.6048 14.7875C14.9517 14.5484 14.9564 14.5297 14.9845 13.3813C15.0033 12.6078 15.022 12.3406 15.0689 12.3219C15.1111 12.3078 15.1252 12.5234 15.1252 13.2828C15.1252 14.1313 15.1392 14.2813 15.2142 14.45C15.458 14.9891 16.222 15.0359 16.5361 14.5297C16.6439 14.3609 16.6486 14.3094 16.6627 13.3063C16.672 12.7063 16.7002 12.2656 16.7236 12.2656C16.7517 12.2656 16.7658 13.0297 16.7564 14.2203ZM15.2189 19.5078V20.9844H15.0548H14.8908V19.5078V18.0313H15.0548H15.2189V19.5078ZM10.3908 19.6016V20.9844H10.2267H10.0627V19.6016V18.2188H10.2267H10.3908V19.6016Z" fill="#1071A3"/>
<path d="M3.89844 12.9312C3.75313 13.0109 3.73438 13.0625 3.73438 13.3672C3.73438 13.7094 3.81875 13.8594 4.01094 13.8594C4.22188 13.8594 4.29688 13.7328 4.29688 13.3766C4.29688 13.1234 4.27813 13.0437 4.20313 12.9687C4.09531 12.8609 4.03438 12.8562 3.89844 12.9312Z" fill="#1071A3"/>
</g>
<defs>
<clipPath id="clip0_2_572">
<rect width="24" height="24" fill="white" transform="translate(0.5 0.5)"/>
</clipPath>
</defs>
</svg>
