<svg width="25" height="25" viewBox="0 0 25 25" fill="none" xmlns="http://www.w3.org/2000/svg">
<path d="M4.08111 0.605858C3.72934 0.808893 3.57457 1.32357 3.75748 1.69186C3.7997 1.77685 4.7049 2.72593 5.77427 3.80249C6.84363 4.88377 7.71601 5.79035 7.71601 5.8234C7.71601 5.85173 7.65503 5.94617 7.5753 6.03116L7.43928 6.18698L5.31463 4.04802C3.43386 2.15932 3.17121 1.91379 3.04458 1.91379C2.86166 1.91379 2.6975 2.08377 2.6975 2.27264C2.6975 2.39068 2.98829 2.70232 4.81747 4.54381L6.93743 6.67804L6.80142 6.82442L6.6654 6.97079L4.55013 4.846C3.39165 3.67972 2.39264 2.71176 2.34105 2.6976C2.13468 2.63621 1.90017 2.84397 1.90017 3.08478C1.90017 3.12728 2.86166 4.13301 4.03421 5.31345L6.16824 7.46658L6.03692 7.59406C5.96656 7.66489 5.86338 7.72155 5.81179 7.72155C5.75551 7.72155 5.00977 7.00384 3.77625 5.76202C1.68442 3.65612 1.64221 3.61834 1.23885 3.675C0.971511 3.71278 0.70886 3.90165 0.591605 4.14246C0.474351 4.39271 0.46966 4.61463 0.577535 4.85072C0.647888 5.00182 4.1796 9.27501 4.76119 9.91245C5.05667 10.2382 5.5679 10.5593 6.03223 10.7199C6.40744 10.8474 6.48249 10.8568 7.59875 10.8899C9.26846 10.9418 9.33881 10.9654 10.3378 12.0325C10.5723 12.2828 10.6614 12.3489 10.774 12.3489C10.9429 12.3489 11.1398 12.16 11.1398 11.9995C11.1398 11.7681 10.169 10.7529 9.73279 10.531C9.14651 10.2335 9.05271 10.2146 7.76291 10.1769C6.74514 10.1485 6.52939 10.1249 6.30895 10.0447C5.95718 9.92189 5.71329 9.78968 5.50224 9.6197C5.23958 9.41194 1.24354 4.60991 1.24354 4.50603C1.24354 4.45409 1.27637 4.41632 1.32797 4.41632C1.37018 4.41632 2.23786 5.25207 3.28378 6.30974C4.31562 7.34853 5.24897 8.25511 5.35684 8.31649C5.6148 8.47231 5.97594 8.48176 6.2386 8.34482C6.50125 8.20789 8.25538 6.42307 8.34918 6.20114C8.43361 5.99339 8.4383 5.78563 8.36794 5.52593C8.32573 5.36539 8.01618 5.03015 6.34647 3.34448C4.42818 1.41328 4.24995 1.20552 4.49384 1.20552C4.5642 1.20552 9.40447 5.28984 9.54049 5.46455C9.7281 5.70536 9.93916 6.10671 10.0236 6.39946C10.0986 6.64971 10.1221 6.9283 10.1502 7.88681C10.1877 9.16641 10.2206 9.33639 10.5114 9.8369C10.7787 10.2996 11.7074 11.1684 11.9325 11.1684C12.1013 11.1684 12.2655 10.9937 12.2655 10.8049C12.2655 10.6868 12.2045 10.6018 11.9512 10.361C11.2571 9.69997 11.1117 9.5111 10.9616 9.06725C10.9147 8.93977 10.8819 8.50064 10.8584 7.69794C10.8303 6.6686 10.8115 6.47501 10.7177 6.18698C10.577 5.73841 10.3238 5.25679 10.0799 4.98765C9.84535 4.72323 5.10357 0.700294 4.88782 0.577528C4.67676 0.464206 4.31562 0.473648 4.08111 0.605858Z" fill="#454545"/>
<path d="M21.9279 0.806643C21.8903 0.816086 21.698 0.849138 21.5057 0.87747C20.5771 1.03329 19.5359 1.48658 18.7526 2.08152C18.232 2.47342 16.6092 3.92773 16.4263 4.16381C16.2011 4.44712 15.8634 5.15538 15.7743 5.5048C15.7321 5.69366 15.7181 5.98641 15.7368 6.56719C15.779 8.06871 15.765 8.33313 15.6477 8.63532C15.5867 8.78642 15.4413 9.03195 15.3147 9.17832C15.1928 9.3247 12.6038 12.0208 9.56452 15.1655C6.52059 18.3102 3.89408 21.0347 3.72054 21.2188C3.34533 21.6202 3.23745 21.8185 3.1671 22.2245C3.0217 23.0556 3.5001 23.9716 4.25991 24.321C4.92123 24.6279 5.7514 24.5335 6.23918 24.1038C6.33767 24.0141 8.77657 21.0016 11.6563 17.4036C14.5408 13.8009 17.0172 10.7507 17.1579 10.6185C17.627 10.1935 17.8662 10.118 19.1138 10.0377C20.1081 9.97158 20.4364 9.90075 20.9804 9.63161C21.6136 9.3247 21.9701 8.94696 22.7815 7.74763C23.1286 7.22824 23.5225 6.61441 23.6539 6.38304C24.2964 5.25926 24.6013 3.82857 24.4699 2.53953C24.4043 1.88793 24.3292 1.64712 24.1088 1.35437C23.7524 0.896357 23.4475 0.783033 22.6126 0.787756C22.2749 0.792477 21.9654 0.801922 21.9279 0.806643ZM23.288 1.59518C23.5976 1.75572 23.7008 1.9918 23.7524 2.68118C23.8555 3.94189 23.5507 5.20732 22.894 6.26028C22.4438 6.98743 21.5714 8.23869 21.3697 8.45117C20.9711 8.87613 20.3942 9.17832 19.8407 9.25387C19.7375 9.26804 19.2826 9.30581 18.8323 9.33414C17.627 9.40969 17.0923 9.61273 16.5248 10.2077C16.4075 10.3352 13.9545 13.3807 11.0748 16.9787C6.34236 22.8903 5.81706 23.5325 5.60131 23.6458C5.02442 23.9622 4.27399 23.7025 3.99257 23.0934C3.85187 22.8006 3.82842 22.3662 3.93629 22.1112C3.97381 22.0168 6.15475 19.722 9.3347 16.4309C12.2708 13.3949 14.9723 10.6043 15.3335 10.2266C15.84 9.70244 16.037 9.46163 16.1683 9.20665C16.4779 8.61643 16.5013 8.43229 16.4638 7.08658C16.4357 6.05724 16.4403 5.86837 16.5107 5.59923C16.5998 5.24982 16.8015 4.84847 17.0125 4.58877C17.1486 4.42351 18.2977 3.38472 18.9168 2.87005C19.9721 1.9918 21.2759 1.51019 22.6314 1.49602C23.0113 1.4913 23.1145 1.51019 23.288 1.59518Z" fill="#454545"/>
<path d="M15.5583 14.0979C15.4082 14.2395 15.4176 14.4945 15.5865 14.6598C15.6568 14.7259 17.4578 16.3832 19.5872 18.3333C22.7015 21.1852 23.4754 21.9218 23.5504 22.0824C23.6723 22.3562 23.663 22.7434 23.5269 23.0456C23.3253 23.4942 23.0016 23.7255 22.5045 23.768C21.9229 23.8153 22.1621 24.0419 18.4944 19.9859C14.3858 15.4389 14.6343 15.7033 14.442 15.7033C14.2544 15.7033 14.095 15.8544 14.095 16.0385C14.095 16.1093 14.1513 16.2368 14.2216 16.3265C14.4936 16.6523 21.0552 23.9002 21.2194 24.0513C21.74 24.533 22.5655 24.6321 23.2643 24.3016C24.343 23.7964 24.7089 22.3232 23.9819 21.4308C23.8318 21.2513 18.0582 15.9205 16.1211 14.1781C15.896 13.9798 15.7178 13.9515 15.5583 14.0979Z" fill="#454545"/>
</svg>
