<svg width="18" height="26" viewBox="0 0 18 26" fill="none" xmlns="http://www.w3.org/2000/svg">
<path d="M10.1918 2.56602H10.4413H17C17.2387 2.56602 17.4676 2.47119 17.6364 2.30241C17.8052 2.13363 17.9 1.90471 17.9 1.66602C17.9 1.42732 17.8052 1.1984 17.6364 1.02962C17.4676 0.860837 17.2387 0.766016 17 0.766016H1C0.761305 0.766016 0.532386 0.860837 0.363604 1.02962C0.194821 1.1984 0.1 1.42732 0.1 1.66602C0.1 1.90471 0.194821 2.13363 0.363604 2.30241C0.532386 2.47119 0.761305 2.56602 1 2.56602H5C6.99475 2.56602 8.41654 3.26922 9.34356 4.25622L9.34412 4.25682C10.0015 4.96826 10.4513 5.84625 10.6447 6.79538L10.6691 6.91535H10.5467H1C0.761305 6.91535 0.532386 7.01017 0.363604 7.17895C0.194821 7.34773 0.1 7.57665 0.1 7.81535C0.1 8.05404 0.194821 8.28296 0.363604 8.45174C0.532387 8.62053 0.761305 8.71535 1 8.71535H10.6067H10.7214L10.7057 8.82898C10.5576 9.90531 10.0822 10.9101 9.34404 11.7073L9.34361 11.7078C8.41649 12.6962 6.99463 13.3967 5 13.3967L1.00023 13.3967L1 13.3967M10.1918 2.56602L0.325333 15.0327C0.177293 14.8965 0.073756 14.7189 0.0282453 14.5229C-0.0172654 14.327 -0.00263453 14.1219 0.0702267 13.9344C0.143088 13.747 0.270793 13.5858 0.436663 13.472C0.602534 13.3583 0.798859 13.2971 1 13.2967V13.3967M10.1918 2.56602L10.3723 2.73834C10.4696 2.83129 10.5643 2.92643 10.6564 3.02375C11.6356 4.07794 12.2715 5.40478 12.4797 6.82849L12.4922 6.91402H12.5787H17C17.2387 6.91402 17.4676 7.00884 17.6364 7.17762C17.8052 7.3464 17.9 7.57532 17.9 7.81402C17.9 8.05271 17.8052 8.28163 17.6364 8.45041C17.4676 8.61919 17.2387 8.71402 17 8.71402H12.6213H12.5316L12.5219 8.80325C12.3587 10.3104 11.7429 11.7815 10.6565 12.9375L10.6564 12.9376C9.36086 14.3185 7.45072 15.1953 5 15.1953H3.57333H3.31592L3.50583 15.3691L12.9405 24.0025L12.9405 24.0025L12.9431 24.0047C13.0349 24.0832 13.11 24.1793 13.1639 24.2874C13.2178 24.3954 13.2494 24.5133 13.2568 24.6338C13.2642 24.7544 13.2473 24.8752 13.207 24.989C13.1668 25.1029 13.104 25.2075 13.0225 25.2966C12.941 25.3857 12.8423 25.4575 12.7325 25.5077C12.6226 25.5579 12.5038 25.5854 12.3831 25.5887C12.2623 25.592 12.1422 25.571 12.0297 25.5269C11.9173 25.4827 11.8149 25.4164 11.7287 25.3319L11.7287 25.3319L11.7262 25.3296L0.393031 14.9591M10.1918 2.56602L0.393031 14.9591M1 13.3967C0.819054 13.3971 0.642448 13.4521 0.493228 13.5545C0.343945 13.6569 0.22901 13.8019 0.163435 13.9707C0.0978601 14.1394 0.0846923 14.324 0.125652 14.5003C0.166612 14.6766 0.259795 14.8365 0.393031 14.9591M1 13.3967L0.393031 14.9591" fill="#454545" stroke="#F2F2F2" stroke-width="0.2"/>
</svg>
