<svg width="24" height="24" viewBox="0 0 24 24" fill="none" xmlns="http://www.w3.org/2000/svg">
<g clip-path="url(#clip0_2_1039)">
<path d="M0.0468751 13.7563C0.0766673 13.721 0.125491 13.7148 0.133524 13.6933C0.550034 12.5796 1.41668 11.9669 2.48485 11.5816C3.09196 11.3626 3.71905 11.2591 4.40046 11.304C4.19361 10.8503 3.79421 10.9598 3.44043 10.9072C3.44043 10.6782 3.44043 10.441 3.44043 10.1764C3.84608 10.1882 4.26762 10.0828 4.63454 10.3675C4.78821 10.1887 4.926 10.0153 5.07727 9.85472C5.51423 9.39074 6.08233 9.1799 6.69117 9.10232C7.15116 9.0437 7.62847 9.00413 8.0845 9.06237C8.60117 9.12836 9.10755 9.29728 9.60859 9.45302C9.83308 9.52279 9.86903 9.86876 9.71518 10.1346C9.26576 10.911 8.57567 11.3835 7.73422 11.699C8.94551 12.3434 9.91006 13.1508 9.79044 14.7299C9.52112 14.7059 9.27151 14.6838 9.06561 14.6655C8.98986 14.3304 8.96703 13.9989 8.83995 13.7138C8.55122 13.0662 7.98463 12.6958 7.35771 12.4293C6.82574 12.2032 6.26477 12.0841 5.67883 12.0901C5.31491 12.0938 4.95007 12.0414 4.58663 12.0511C3.75374 12.0735 2.92812 12.1705 2.18209 12.5755C1.57576 12.9046 1.03488 13.3282 0.887891 14.0507C0.817258 14.3978 0.812875 14.772 0.853285 15.1253C0.928043 15.7791 1.09304 16.416 1.40441 17.005C1.42188 17.038 1.44524 17.068 1.46537 17.0986C2.00421 16.4406 2.6669 15.9986 3.50622 15.8435C3.53624 15.838 3.56664 15.8341 3.59635 15.8273C3.65239 15.8144 4.34385 15.296 4.3768 15.2438C4.77601 14.6106 5.32877 14.2542 6.09839 14.2977C6.54433 14.3229 7.00538 14.294 7.43181 14.4007C8.05504 14.5566 8.43504 15.0257 8.61729 15.6356C8.65528 15.7627 8.70162 15.7872 8.81733 15.8006C9.08661 15.8318 9.24543 15.7255 9.42186 15.5109C9.93401 14.8878 10.5935 14.4817 11.404 14.3415C12.3265 14.182 13.1923 14.3229 13.9611 14.8627C14.8923 15.5164 15.4146 16.41 15.4214 17.5707C15.4244 18.0933 15.4219 18.6159 15.4219 19.1552C15.1732 19.1552 14.9364 19.1552 14.6719 19.1552C14.6719 18.7741 14.6816 18.3937 14.6694 18.014C14.6545 17.554 14.6302 17.0925 14.4368 16.6626C14.0743 15.8566 13.4739 15.338 12.6039 15.139C11.8774 14.9729 11.2086 15.1159 10.597 15.5203C10.385 15.6604 10.2074 15.8526 9.99221 16.0401C10.7279 16.3583 11.2487 16.8344 11.6209 17.471C11.9903 18.1029 12.1092 18.7922 12.0339 19.5469C12.1437 19.5469 12.2263 19.5469 12.309 19.5469C13.4495 19.5469 14.5905 19.5651 15.7304 19.537C16.1321 19.5272 16.2911 19.8293 16.1172 20.1777C15.9779 20.4569 15.8374 20.7355 15.6895 21.0303C15.7468 21.0384 15.7757 21.046 15.8046 21.046C17.1249 21.0467 18.4453 21.0617 19.7652 21.0402C20.3828 21.0301 20.7876 20.786 20.9739 20.2016C21.0199 20.0575 21.0438 19.9 21.0439 19.7487C21.0475 16.2176 21.0465 12.6866 21.046 9.15557C21.046 9.13225 21.0424 9.10893 21.0388 9.06628C18.3031 9.06628 15.5665 9.06628 12.8041 9.06628C12.8041 10.5462 12.8041 12.0331 12.8041 13.5333C12.5475 13.5333 12.3161 13.5333 12.0469 13.5333C12.0469 13.4576 12.0469 13.3758 12.0469 13.2941C12.0469 11.7707 12.0468 10.2474 12.047 8.72402C12.047 8.37867 12.1268 8.29701 12.4654 8.29699C15.4339 8.29679 18.4025 8.29681 21.3711 8.29696C21.7152 8.29698 21.7965 8.37723 21.7968 8.71672C21.7972 9.19196 21.7969 9.6672 21.7969 10.1464C22.087 10.1702 22.3667 10.1669 22.6351 10.2203C23.2921 10.3509 23.7052 10.7771 23.9556 11.3806C23.9693 11.4136 23.9994 11.4399 24.0343 11.4534C24.0469 13.5791 24.0469 15.7207 24.0343 17.8684C23.9993 17.904 23.9693 17.9304 23.9556 17.9635C23.7051 18.5667 23.2921 18.9928 22.6354 19.1235C22.367 19.1768 22.0874 19.1736 21.8025 19.1969C21.7667 19.8215 21.9232 20.4762 21.4512 21.0469C21.9561 21.0469 22.4079 21.0372 22.859 21.0498C23.2558 21.0608 23.6614 20.9768 24.0469 21.1406C24.0469 21.4541 24.0469 21.7676 24.0338 22.0872C23.9935 22.1454 23.9592 22.1952 23.9401 22.2501C23.7996 22.6532 23.5906 23.0211 23.2882 23.3172C22.9863 23.6129 22.6163 23.8176 22.212 23.9541C22.1766 23.9661 22.1537 24.0151 22.125 24.0469C15.4209 24.0469 8.71679 24.0469 2.00659 24.0338C1.94833 23.9935 1.8986 23.9592 1.84362 23.9401C1.44057 23.7996 1.07262 23.5906 0.776559 23.2882C0.480858 22.9863 0.276129 22.6163 0.139645 22.212C0.127689 22.1766 0.0786757 22.1537 0.046875 22.125C0.0468751 21.8115 0.0468751 21.498 0.059739 21.179C0.284424 21.1135 0.496244 21.0536 0.716778 20.9912C0.541717 20.7569 0.353838 20.502 0.16043 20.2514C0.138514 20.223 0.0854797 20.2186 0.046875 20.2031C0.0468751 20.03 0.0468751 19.8569 0.0597957 19.6786C0.303525 19.612 0.534333 19.5506 0.790481 19.4825C0.788826 19.4955 0.796242 19.466 0.795752 19.4366C0.787785 18.959 0.784794 18.4831 0.967656 18.0273C0.987924 17.9767 0.956952 17.8924 0.92625 17.8367C0.549039 17.1523 0.246657 16.4416 0.133747 15.6608C0.130725 15.6399 0.0769712 15.6264 0.0468752 15.6094C0.0468751 14.999 0.0468751 14.3887 0.0468751 13.7563ZM7.55267 16.5931C7.08249 16.6684 6.68678 16.899 6.34581 17.2147C5.89453 17.6326 5.70117 18.1709 5.70957 18.78C5.43768 18.78 5.18502 18.78 4.92308 18.78C4.8846 17.8853 5.25852 17.18 5.87339 16.5371C5.30027 16.6447 4.82725 16.8645 4.44078 17.2431C4.0147 17.6605 3.82354 18.1826 3.8365 18.7819C3.56685 18.7819 3.31429 18.7819 3.04968 18.7819C3.00598 17.9159 3.3627 17.2269 3.94354 16.5888C3.27568 16.6433 2.74358 16.9186 2.31766 17.3587C1.80174 17.8917 1.53377 18.5418 1.59099 19.304C1.60342 19.4695 1.6428 19.5509 1.83408 19.5506C4.89521 19.5453 7.95634 19.5458 11.0175 19.55C11.1763 19.5502 11.2385 19.4953 11.251 19.343C11.3526 18.1117 10.5655 17.0918 9.48049 16.698C9.33904 16.6466 9.15884 16.6014 9.02639 16.6446C8.61989 16.7773 8.31263 17.0623 8.06086 17.4031C7.75892 17.8119 7.58583 18.2692 7.58364 18.7798C7.31208 18.7798 7.0593 18.7798 6.80728 18.7798C6.75409 18.3274 6.86656 17.9187 7.05695 17.54C7.21731 17.2211 7.43336 16.9301 7.64519 16.6091C7.65074 16.5916 7.65629 16.5742 7.66184 16.5568C7.63799 16.5678 7.61414 16.5789 7.55267 16.5931ZM5.55469 23.2969C10.7575 23.2969 15.9602 23.2994 21.163 23.2928C21.6638 23.2921 22.158 23.2118 22.5639 22.8704C22.8948 22.5921 23.1438 22.2645 23.2093 21.8065C15.7607 21.8065 8.33384 21.8065 0.893703 21.8065C0.898332 21.8687 0.892324 21.9239 0.907622 21.9724C1.05822 22.4501 1.36804 22.7998 1.79581 23.0471C2.13845 23.2452 2.52462 23.2858 2.9065 23.2923C3.77339 23.3069 4.64068 23.2969 5.55469 23.2969ZM21.7969 12.9141C21.7969 14.7462 21.7969 16.5784 21.7969 18.4412C21.9826 18.4161 22.1332 18.3925 22.2846 18.3757C22.7455 18.3247 23.0486 18.067 23.1976 17.6416C23.2622 17.4575 23.2917 17.252 23.2927 17.056C23.3003 15.5722 23.2987 14.0884 23.2948 12.6046C23.2942 12.3892 23.2641 12.174 23.2509 11.9586C23.2075 11.2493 22.5312 10.8358 21.7969 10.953C21.7969 11.5891 21.7969 12.2282 21.7969 12.9141ZM11.9297 20.2969C8.36935 20.2969 4.80901 20.2969 1.21512 20.2969C1.37391 20.5165 1.50661 20.6939 1.63246 20.876C1.72177 21.0053 1.82785 21.0521 1.99398 21.0519C6.17807 21.0455 10.3622 21.0469 14.5463 21.0469C14.6009 21.0469 14.6562 21.0514 14.71 21.0448C14.7438 21.0406 14.793 21.0286 14.8054 21.0046C14.9226 20.7788 15.0333 20.5497 15.158 20.2969C14.0679 20.2969 13.0223 20.2969 11.9297 20.2969ZM5.10543 15.6302C5.08375 15.6808 5.06207 15.7313 5.03647 15.7911C5.9727 15.7911 6.88242 15.7911 7.82759 15.7911C7.76186 15.6829 7.71612 15.588 7.65273 15.5069C7.43727 15.2311 7.1484 15.0987 6.80102 15.0699C6.16502 15.0172 5.54444 15.0014 5.10543 15.6302ZM6.47121 11.0367C6.40363 11.0818 6.33606 11.1269 6.26849 11.1719C7.12623 11.1119 7.90672 10.8684 8.60777 10.2626C7.81765 10.3926 7.14918 10.6776 6.47121 11.0367ZM6.35786 10.1753C6.57048 10.0743 6.7831 9.97329 6.99573 9.87228C6.06005 10.0407 5.64088 10.2622 5.50597 10.6623C5.79327 10.4991 6.06082 10.3471 6.35786 10.1753ZM5.44999 10.6576C5.46174 10.672 5.47349 10.6864 5.48523 10.7007C5.48357 10.6806 5.48191 10.6604 5.44999 10.6576Z" fill="#454545"/>
<path d="M15.7356 5.32984C15.8079 5.23767 15.8721 5.16111 15.9311 5.08076C16.2176 4.69068 16.2335 4.07262 15.7768 3.56225C15.2654 2.99074 15.2993 1.81129 15.8178 1.2068C15.9923 1.00335 16.0766 0.722506 16.2243 0.433655C16.3901 0.433655 16.6376 0.433655 16.9077 0.433655C16.9747 0.877287 16.8124 1.2609 16.556 1.60067C16.0911 2.21689 16.0703 2.67209 16.5498 3.2564C17.0681 3.8881 17.0511 4.98668 16.5387 5.61108C16.3521 5.83848 16.1855 6.07872 16.2154 6.40878C15.9512 6.40878 15.6977 6.40878 15.432 6.40878C15.3876 6.00765 15.5068 5.66248 15.7356 5.32984Z" fill="#454545"/>
<path d="M19.0953 1.0402C18.9915 1.23885 18.9254 1.44198 18.803 1.60211C18.3364 2.21264 18.3201 2.67087 18.8014 3.25841C19.3175 3.88838 19.3026 4.9871 18.7872 5.61223C18.5501 5.89971 18.4878 6.05714 18.4519 6.40926C18.1999 6.40926 17.9465 6.40926 17.6836 6.40926C17.6266 5.96081 17.7824 5.58105 18.035 5.24519C18.5073 4.61722 18.5271 4.16128 18.0291 3.57444C17.5357 2.99292 17.5356 1.80337 18.0796 1.20094C18.2635 0.997274 18.4128 0.754599 18.3756 0.437134C18.6368 0.437134 18.8903 0.437134 19.1907 0.437134C19.1621 0.638315 19.1347 0.831617 19.0953 1.0402Z" fill="#454545"/>
<path d="M10.9219 15.7519C10.9219 15.637 10.9219 15.5447 10.9219 15.4372C11.1729 15.4372 11.4092 15.4372 11.6588 15.4372C11.6588 15.6716 11.6588 15.9024 11.6588 16.1527C11.4293 16.1527 11.1928 16.1527 10.9219 16.1527C10.9219 16.0324 10.9219 15.9035 10.9219 15.7519Z" fill="#454545"/>
<path d="M13.0662 15.4226C13.1161 15.46 13.1661 15.4961 13.1676 15.5341C13.1756 15.7355 13.1713 15.9374 13.1713 16.1554C12.9233 16.1554 12.6869 16.1554 12.4361 16.1554C12.4361 15.9185 12.4361 15.6822 12.4361 15.4221C12.6432 15.4221 12.8435 15.4221 13.0662 15.4226Z" fill="#454545"/>
<path d="M19.9219 11.2969C20.0522 11.2969 20.16 11.2969 20.2821 11.2969C20.2821 11.5491 20.2821 11.7853 20.2821 12.0344C20.0459 12.0344 19.815 12.0344 19.5654 12.0344C19.5654 11.8029 19.5654 11.5664 19.5654 11.2969C19.6726 11.2969 19.786 11.2969 19.9219 11.2969Z" fill="#454545"/>
<path d="M20.1464 9.79699C20.2115 9.84287 20.2872 9.88622 20.2908 9.93489C20.3051 10.1276 20.2967 10.3219 20.2967 10.5311C20.0467 10.5311 19.8104 10.5311 19.5604 10.5311C19.5604 10.2921 19.5604 10.0558 19.5604 9.79691C19.7541 9.79691 19.9391 9.79691 20.1464 9.79699Z" fill="#454545"/>
</g>
<defs>
<clipPath id="clip0_2_1039">
<rect width="24" height="24" fill="white"/>
</clipPath>
</defs>
</svg>
