<svg width="24" height="24" viewBox="0 0 24 24" fill="none" xmlns="http://www.w3.org/2000/svg">
<path d="M8.93906 0.796886C8.66719 0.867199 8.30625 1.06407 8.08125 1.27501C7.88906 1.45314 7.54688 2.03439 7.54688 2.18439C7.54688 2.23595 7.41094 2.25001 6.88594 2.25001C6.51094 2.25001 6.14062 2.27345 6.0375 2.30626C5.81719 2.37189 5.47031 2.66251 5.39063 2.8547L5.33438 2.99064L4.32188 3.00939L3.30469 3.02345L2.99063 3.17345C2.55469 3.3797 2.28281 3.6422 2.07188 4.06876L1.89844 4.42501V12.1875V19.95L2.07188 20.3063C2.28281 20.7328 2.55469 20.9953 2.99063 21.2016L3.30469 21.3516L6.975 21.3656L10.6406 21.3797L10.7578 21.2625C10.9125 21.1078 10.9125 20.8922 10.7578 20.7422L10.6453 20.625H7.12031C4.49063 20.625 3.54844 20.6109 3.40313 20.5688C3.14531 20.4938 2.75625 20.1047 2.68125 19.8469C2.60156 19.5656 2.60156 4.80939 2.68125 4.52814C2.75625 4.27032 3.14531 3.88126 3.40313 3.80626C3.525 3.77345 3.90938 3.75001 4.425 3.75001H5.25V4.20001C5.25 4.44845 5.27344 4.73907 5.30625 4.84689C5.38125 5.1047 5.77031 5.49376 6.02813 5.56876C6.17344 5.61095 7.03594 5.62501 9.38438 5.62501C12.9891 5.62501 12.8344 5.63907 13.1859 5.25001C13.4391 4.96876 13.5 4.7672 13.5 4.20001V3.75001H14.325C14.8406 3.75001 15.225 3.77345 15.3469 3.80626C15.6047 3.88126 15.9938 4.27032 16.0688 4.52814C16.1109 4.67345 16.125 5.49376 16.125 7.68282V10.6453L16.2422 10.7578C16.3922 10.9125 16.6078 10.9125 16.7625 10.7578L16.8797 10.6406L16.8656 7.53282L16.8516 4.42501L16.6781 4.06876C16.4672 3.6422 16.1953 3.3797 15.7594 3.17345L15.4453 3.02345L14.4281 3.00939L13.4156 2.99064L13.3594 2.8547C13.2797 2.66251 12.9328 2.37189 12.7125 2.30626C12.6094 2.27345 12.2391 2.25001 11.8641 2.25001C11.3391 2.25001 11.2031 2.23595 11.2031 2.18439C11.2031 2.15157 11.1281 1.97345 11.0391 1.79532C10.7297 1.17657 10.1578 0.801575 9.47813 0.768761C9.28125 0.759386 9.0375 0.773449 8.93906 0.796886ZM9.72188 1.55626C10.1203 1.67345 10.5 2.19376 10.5 2.62032C10.5 2.71876 10.5422 2.81251 10.6172 2.88282C10.7297 3.00001 10.7391 3.00001 11.625 3.00001C12.5109 3.00001 12.5203 3.00001 12.6328 3.1172C12.7453 3.22501 12.75 3.24845 12.75 3.93751C12.75 4.62657 12.7453 4.65001 12.6328 4.75782L12.5203 4.87501H9.375H6.22969L6.11719 4.75782C6.00469 4.65001 6 4.62657 6 3.93751C6 3.24845 6.00469 3.22501 6.11719 3.1172C6.22969 3.00001 6.23906 3.00001 7.125 3.00001C8.01094 3.00001 8.02031 3.00001 8.13281 2.88282C8.20781 2.81251 8.25 2.71876 8.25 2.62032C8.25 2.3297 8.35781 2.09064 8.60156 1.85157C8.92969 1.51876 9.28125 1.4297 9.72188 1.55626Z" fill="#454545"/>
<path d="M4.24219 7.24219L4.125 7.35469V8.625V9.89531L4.24219 10.0078L4.35469 10.125H5.625H6.89531L7.00781 10.0078L7.125 9.89531V8.625V7.35469L7.00781 7.24219L6.89531 7.125H5.625H4.35469L4.24219 7.24219ZM6.375 8.625V9.375H5.625H4.875V8.625V7.875H5.625H6.375V8.625Z" fill="#454545"/>
<path d="M8.36719 7.24219C8.29219 7.3125 8.25 7.41094 8.25 7.5C8.25 7.58906 8.29219 7.6875 8.36719 7.75781L8.47969 7.875H11.4375H14.3953L14.5078 7.75781C14.5828 7.6875 14.625 7.58906 14.625 7.5C14.625 7.41094 14.5828 7.3125 14.5078 7.24219L14.3953 7.125H11.4375H8.47969L8.36719 7.24219Z" fill="#454545"/>
<path d="M8.36719 9.49219C8.29219 9.5625 8.25 9.66094 8.25 9.75C8.25 9.83906 8.29219 9.9375 8.36719 10.0078L8.47969 10.125H10.3125H12.1453L12.2578 10.0078C12.3328 9.9375 12.375 9.83906 12.375 9.75C12.375 9.66094 12.3328 9.5625 12.2578 9.49219L12.1453 9.375H10.3125H8.47969L8.36719 9.49219Z" fill="#454545"/>
<path d="M17.8172 11.325C16.7954 11.5969 16.1251 12.5016 16.1251 13.6031C16.1251 13.8047 16.1157 13.9688 16.1063 13.9688C16.0969 13.9688 15.9329 13.8938 15.7407 13.8047C15.2438 13.5703 14.8032 13.4859 14.2266 13.5188C13.3079 13.5703 12.6329 13.8516 12.0469 14.4328C11.4891 14.9859 11.1797 15.5813 10.9829 16.4859C10.8657 17.0016 10.8704 18.1594 10.9829 18.7031C11.5219 21.2344 13.4813 23.3766 15.1407 23.2359C15.5719 23.1984 15.8813 23.0906 16.2141 22.8703L16.5001 22.6781L16.786 22.8703C17.4985 23.3438 18.3422 23.3625 19.1719 22.9172C20.0626 22.4344 20.8501 21.5578 21.4313 20.3906C22.1063 19.0313 22.2891 17.5641 21.9563 16.2328C21.6891 15.1547 21.0516 14.3109 20.1891 13.8797C19.7016 13.6359 19.3641 13.5516 18.7735 13.5188C18.1969 13.4859 17.7563 13.5703 17.2594 13.8047C17.0672 13.8938 16.9032 13.9688 16.8891 13.9688C16.8751 13.9688 16.8704 13.7719 16.8844 13.5328C16.9079 13.0734 17.0157 12.7828 17.2688 12.4828C17.4516 12.2672 17.8969 12.0516 18.2391 12.0141C18.4594 11.9906 18.5626 11.9578 18.6422 11.8781C18.7876 11.7328 18.7829 11.5125 18.6329 11.3672C18.4969 11.2266 18.2251 11.2172 17.8172 11.325ZM14.9157 14.3016C15.3047 14.3859 15.7032 14.5875 16.0454 14.8781C16.4579 15.225 16.5422 15.225 16.9547 14.8781C17.761 14.1938 18.8204 14.0625 19.8001 14.5219C20.1376 14.6813 20.6016 15.0938 20.8126 15.4219C21.5016 16.4953 21.5485 18.1781 20.9297 19.6641C20.4422 20.85 19.5657 21.9047 18.7594 22.2984C18.436 22.4531 18.361 22.4719 18.0235 22.4766C17.5547 22.4766 17.3251 22.3781 16.9266 22.0125C16.5469 21.6609 16.4532 21.6609 16.0735 22.0125C15.6751 22.3781 15.4454 22.4766 14.9766 22.4766C14.6391 22.4719 14.5641 22.4531 14.2407 22.2984C13.8235 22.0969 13.2188 21.5578 12.8532 21.0563C11.7235 19.5141 11.3485 17.6578 11.8594 16.1391C12.0282 15.6234 12.2438 15.2813 12.5954 14.9531C13.2001 14.3859 14.1094 14.1328 14.9157 14.3016Z" fill="#454545"/>
<path d="M4.24219 11.7422L4.125 11.8547V13.125V14.3953L4.24219 14.5078L4.35469 14.625H5.625H6.89531L7.00781 14.5078L7.125 14.3953V13.125V11.8547L7.00781 11.7422L6.89531 11.625H5.625H4.35469L4.24219 11.7422ZM6.375 13.125V13.875H5.625H4.875V13.125V12.375H5.625H6.375V13.125Z" fill="#454545"/>
<path d="M8.36719 11.7422C8.29219 11.8125 8.25 11.9109 8.25 12C8.25 12.0891 8.29219 12.1875 8.36719 12.2578L8.47969 12.375H11.4375H14.3953L14.5078 12.2578C14.5828 12.1875 14.625 12.0891 14.625 12C14.625 11.9109 14.5828 11.8125 14.5078 11.7422L14.3953 11.625H11.4375H8.47969L8.36719 11.7422Z" fill="#454545"/>
<path d="M8.36719 13.9922C8.29219 14.0625 8.25 14.1609 8.25 14.25C8.25 14.3391 8.29219 14.4375 8.36719 14.5078L8.47969 14.625H9.5625H10.6453L10.7578 14.5078C10.8328 14.4375 10.875 14.3391 10.875 14.25C10.875 14.1609 10.8328 14.0625 10.7578 13.9922L10.6453 13.875H9.5625H8.47969L8.36719 13.9922Z" fill="#454545"/>
<path d="M4.24219 16.2422L4.125 16.3547V17.625V18.8953L4.24219 19.0078L4.35469 19.125H5.625H6.89531L7.00781 19.0078L7.125 18.8953V17.625V16.3547L7.00781 16.2422L6.89531 16.125H5.625H4.35469L4.24219 16.2422ZM6.375 17.625V18.375H5.625H4.875V17.625V16.875H5.625H6.375V17.625Z" fill="#454545"/>
<path d="M8.36719 16.2422C8.29219 16.3125 8.25 16.4109 8.25 16.5C8.25 16.5891 8.29219 16.6875 8.36719 16.7578C8.475 16.8703 8.49844 16.875 9.1875 16.875C9.87656 16.875 9.9 16.8703 10.0078 16.7578C10.0828 16.6875 10.125 16.5891 10.125 16.5C10.125 16.4109 10.0828 16.3125 10.0078 16.2422C9.9 16.1297 9.87656 16.125 9.1875 16.125C8.49844 16.125 8.475 16.1297 8.36719 16.2422Z" fill="#454545"/>
<path d="M8.36719 18.4922C8.29219 18.5625 8.25 18.6609 8.25 18.75C8.25 18.8391 8.29219 18.9375 8.36719 19.0078C8.475 19.1203 8.49844 19.125 9.1875 19.125C9.87656 19.125 9.9 19.1203 10.0078 19.0078C10.0828 18.9375 10.125 18.8391 10.125 18.75C10.125 18.6609 10.0828 18.5625 10.0078 18.4922C9.9 18.3797 9.87656 18.375 9.1875 18.375C8.49844 18.375 8.475 18.3797 8.36719 18.4922Z" fill="#454545"/>
</svg>
