<svg width="16" height="16" viewBox="0 0 16 16" fill="none" xmlns="http://www.w3.org/2000/svg">
<g clip-path="url(#clip0_2_2078)">
<path d="M12 1.4H4C2.56406 1.4 1.4 2.56406 1.4 4V12C1.4 13.4359 2.56406 14.6 4 14.6H12C13.4359 14.6 14.6 13.4359 14.6 12V4C14.6 2.56406 13.4359 1.4 12 1.4Z" fill="#2BB938" fill-opacity="0.16" stroke="#018D0E" stroke-width="1.2"/>
<path d="M7.99956 10.2205C9.22686 10.2205 10.2218 9.22558 10.2218 7.99828C10.2218 6.77098 9.22686 5.77606 7.99956 5.77606C6.77227 5.77606 5.77734 6.77098 5.77734 7.99828C5.77734 9.22558 6.77227 10.2205 7.99956 10.2205Z" fill="#018D0E"/>
</g>
<defs>
<clipPath id="clip0_2_2078">
<rect width="16" height="16" fill="white"/>
</clipPath>
</defs>
</svg>
