<svg width="20" height="20" viewBox="0 0 20 20" fill="none" xmlns="http://www.w3.org/2000/svg">
<path d="M10.7826 4.78261C10.7826 4.57505 10.7002 4.37599 10.5534 4.22922C10.4066 4.08245 10.2076 4 10 4C9.79244 4 9.59338 4.08245 9.44661 4.22922C9.29984 4.37599 9.21739 4.57505 9.21739 4.78261V9.21739H4.78261C4.57505 9.21739 4.37599 9.29984 4.22922 9.44661C4.08245 9.59338 4 9.79244 4 10C4 10.2076 4.08245 10.4066 4.22922 10.5534C4.37599 10.7002 4.57505 10.7826 4.78261 10.7826H9.21739V15.2174C9.21739 15.425 9.29984 15.624 9.44661 15.7708C9.59338 15.9175 9.79244 16 10 16C10.2076 16 10.4066 15.9175 10.5534 15.7708C10.7002 15.624 10.7826 15.425 10.7826 15.2174V10.7826H15.2174C15.425 10.7826 15.624 10.7002 15.7708 10.5534C15.9175 10.4066 16 10.2076 16 10C16 9.79244 15.9175 9.59338 15.7708 9.44661C15.624 9.29984 15.425 9.21739 15.2174 9.21739H10.7826V4.78261Z" fill="#49ABE8"/>
</svg>
