<svg width="14" height="8" viewBox="0 0 14 8" fill="none" xmlns="http://www.w3.org/2000/svg">
<path fill-rule="evenodd" clip-rule="evenodd" d="M7.70698 7.70701C7.51945 7.89448 7.26514 7.99979 6.99998 7.99979C6.73481 7.99979 6.4805 7.89448 6.29298 7.70701L0.635977 2.05001C0.540467 1.95776 0.464284 1.84742 0.411875 1.72541C0.359466 1.60341 0.33188 1.47219 0.330726 1.33941C0.329572 1.20663 0.354874 1.07495 0.405155 0.952054C0.455436 0.829157 0.529689 0.717505 0.623582 0.623612C0.717475 0.529719 0.829126 0.455466 0.952023 0.405185C1.07492 0.354904 1.2066 0.329603 1.33938 0.330757C1.47216 0.331911 1.60338 0.359497 1.72538 0.411906C1.84739 0.464315 1.95773 0.540497 2.04998 0.636007L6.99998 5.58601L11.95 0.636007C12.1386 0.453849 12.3912 0.353055 12.6534 0.355333C12.9156 0.357611 13.1664 0.46278 13.3518 0.648188C13.5372 0.833596 13.6424 1.08441 13.6447 1.34661C13.6469 1.6088 13.5461 1.86141 13.364 2.05001L7.70698 7.70701Z" fill="#717171"/>
</svg>
